<?xml version="1.0" encoding="UTF-8" standalone="no"?>
<!DOCTYPE svg PUBLIC "-//W3C//DTD SVG 1.1//EN"
 "http://www.w3.org/Graphics/SVG/1.1/DTD/svg11.dtd">
<!-- Generated by graphviz version 2.43.0 (0)
 -->
<!-- Title: Overall Pages: 1 -->
<svg width="1313pt" height="3605pt"
 viewBox="0.00 0.00 1313.00 3604.80" xmlns="http://www.w3.org/2000/svg" xmlns:xlink="http://www.w3.org/1999/xlink">
<g id="graph0" class="graph" transform="scale(1 1) rotate(0) translate(4 3600.8)">
<title>Overall</title>
<polygon fill="white" stroke="transparent" points="-4,4 -4,-3600.8 1309,-3600.8 1309,4 -4,4"/>
<g id="clust1" class="cluster">
<title>clusterDoIt</title>
<polygon fill="none" stroke="black" points="8,-8 8,-3533.8 1285,-3533.8 1285,-8 8,-8"/>
<text text-anchor="middle" x="646.5" y="-3518.6" font-family="Times,serif" font-size="14.00">DoIt</text>
</g>
<g id="clust2" class="cluster">
<title>clusterInitResp</title>
<polygon fill="none" stroke="black" points="645,-3302.8 645,-3502.8 1111,-3502.8 1111,-3302.8 645,-3302.8"/>
<text text-anchor="middle" x="878" y="-3487.6" font-family="Times,serif" font-size="14.00">InitResp</text>
</g>
<g id="clust3" class="cluster">
<title>clusterPlaneLoop</title>
<polygon fill="none" stroke="black" points="16,-1436.2 16,-3408.8 637,-3408.8 637,-1436.2 16,-1436.2"/>
<text text-anchor="middle" x="326.5" y="-3393.6" font-family="Times,serif" font-size="14.00">LoopPlanes</text>
</g>
<g id="clust4" class="cluster">
<title>clusterLoadData</title>
<polygon fill="none" stroke="black" points="435,-3062.8 435,-3283.8 629,-3283.8 629,-3062.8 435,-3062.8"/>
<text text-anchor="middle" x="532" y="-3268.6" font-family="Times,serif" font-size="14.00">LoadDataPerPlane</text>
</g>
<g id="clust5" class="cluster">
<title>clusterDecon2DInit</title>
<polygon fill="none" stroke="black" points="24,-2311.8 24,-3377.8 427,-3377.8 427,-2311.8 24,-2311.8"/>
<text text-anchor="middle" x="225.5" y="-3362.6" font-family="Times,serif" font-size="14.00">decon_2D_init</text>
</g>
<g id="clust6" class="cluster">
<title>clusterChanLoop</title>
<polygon fill="none" stroke="black" points="168,-2895.8 168,-2970.8 284,-2970.8 284,-2895.8 168,-2895.8"/>
<text text-anchor="middle" x="226" y="-2955.6" font-family="Times,serif" font-size="14.00">channel loop</text>
</g>
<g id="clust7" class="cluster">
<title>clusterTightROIs</title>
<polygon fill="none" stroke="black" points="153,-1897.8 153,-2292.8 618,-2292.8 618,-1897.8 153,-1897.8"/>
<text text-anchor="middle" x="385.5" y="-2277.6" font-family="Times,serif" font-size="14.00">Find Tight ROIs</text>
</g>
<g id="clust8" class="cluster">
<title>clusterLooseROIs</title>
<polygon fill="none" stroke="black" points="256,-1570.8 256,-1878.8 454,-1878.8 454,-1570.8 256,-1570.8"/>
<text text-anchor="middle" x="355" y="-1863.6" font-family="Times,serif" font-size="14.00">Find Loose ROIs</text>
</g>
<g id="clust9" class="cluster">
<title>clusterLoadDataROIRefine</title>
<polygon fill="none" stroke="black" points="126,-1476.8 126,-1551.8 629,-1551.8 629,-1476.8 126,-1476.8"/>
<text text-anchor="middle" x="377.5" y="-1536.6" font-family="Times,serif" font-size="14.00">Load Data &#45;&#45; ROI Refine</text>
</g>
<g id="clust10" class="cluster">
<title>clusterPlaneLoop2</title>
<polygon fill="none" stroke="black" points="370,-1061.6 370,-1417.2 636,-1417.2 636,-1061.6 370,-1061.6"/>
<text text-anchor="middle" x="503" y="-1402" font-family="Times,serif" font-size="14.00">LoopPlanes</text>
</g>
<g id="clust11" class="cluster">
<title>clusterAnodeFaces</title>
<polygon fill="none" stroke="black" points="447,-1102.2 447,-1250.2 559,-1250.2 559,-1102.2 447,-1102.2"/>
<text text-anchor="middle" x="503" y="-1235" font-family="Times,serif" font-size="14.00">LoopAnodeFaces</text>
</g>
<g id="clust12" class="cluster">
<title>clusterPlaneLoop3</title>
<polygon fill="none" stroke="black" points="315,-16 315,-1042.6 731,-1042.6 731,-16 315,-16"/>
<text text-anchor="middle" x="523" y="-1027.4" font-family="Times,serif" font-size="14.00">LoopPlanes</text>
</g>
<g id="clust13" class="cluster">
<title>clusterBreakROIsLoop</title>
<polygon fill="none" stroke="black" points="443,-760 443,-981 563,-981 563,-760 443,-760"/>
<text text-anchor="middle" x="503" y="-965.8" font-family="Times,serif" font-size="14.00">BreakROIsLoop</text>
</g>
<!-- MaskFunc -->
<g id="node1" class="node">
<title>MaskFunc</title>
<ellipse fill="none" stroke="black" cx="1198" cy="-3453.8" rx="79.09" ry="18"/>
<text text-anchor="middle" x="1198" y="-3450.1" font-family="Times,serif" font-size="14.00">Load Masks:Chans</text>
</g>
<!-- Masks -->
<g id="node2" class="node">
<title>Masks</title>
<polygon fill="none" stroke="black" points="1175,-3346.8 1121,-3346.8 1121,-3310.8 1175,-3310.8 1175,-3346.8"/>
<text text-anchor="middle" x="1148" y="-3325.1" font-family="Times,serif" font-size="14.00">Masks</text>
</g>
<!-- MaskFunc&#45;&gt;Masks -->
<g id="edge15" class="edge">
<title>MaskFunc&#45;&gt;Masks</title>
<path fill="none" stroke="black" d="M1191.05,-3435.7C1182.7,-3415.16 1168.6,-3380.48 1158.82,-3356.43"/>
<polygon fill="black" stroke="black" points="1162.06,-3355.1 1155.05,-3347.15 1155.58,-3357.74 1162.06,-3355.1"/>
</g>
<!-- ROIForms -->
<g id="node3" class="node">
<title>ROIForms</title>
<polygon fill="none" stroke="black" points="719.5,-2174.8 644.5,-2174.8 644.5,-2138.8 719.5,-2138.8 719.5,-2174.8"/>
<text text-anchor="middle" x="682" y="-2153.1" font-family="Times,serif" font-size="14.00">ROIForms</text>
</g>
<!-- Masks&#45;&gt;ROIForms -->
<g id="edge16" class="edge">
<title>Masks&#45;&gt;ROIForms</title>
<path fill="none" stroke="black" d="M1127.81,-3310.71C1123.74,-3307.79 1119.37,-3305 1115,-3302.8 1019.88,-3254.97 885,-3342.27 885,-3235.8 885,-3235.8 885,-3235.8 885,-2242.8 885,-2175.8 789.75,-2160.71 729.74,-2157.84"/>
<polygon fill="black" stroke="black" points="729.83,-2154.35 719.71,-2157.46 729.57,-2161.34 729.83,-2154.35"/>
</g>
<!-- ROIRefines -->
<g id="node4" class="node">
<title>ROIRefines</title>
<polygon fill="none" stroke="black" points="1188.5,-3252.8 1107.5,-3252.8 1107.5,-3216.8 1188.5,-3216.8 1188.5,-3252.8"/>
<text text-anchor="middle" x="1148" y="-3231.1" font-family="Times,serif" font-size="14.00">ROIRefines</text>
</g>
<!-- Masks&#45;&gt;ROIRefines -->
<g id="edge17" class="edge">
<title>Masks&#45;&gt;ROIRefines</title>
<path fill="none" stroke="black" d="M1148,-3310.5C1148,-3297.26 1148,-3278.75 1148,-3263.46"/>
<polygon fill="black" stroke="black" points="1151.5,-3263.03 1148,-3253.03 1144.5,-3263.03 1151.5,-3263.03"/>
</g>
<!-- MaskChans -->
<g id="node12" class="node">
<title>MaskChans</title>
<ellipse fill="none" stroke="black" cx="568" cy="-3234.8" rx="52.79" ry="18"/>
<text text-anchor="middle" x="568" y="-3231.1" font-family="Times,serif" font-size="14.00">MaskChans</text>
</g>
<!-- Masks&#45;&gt;MaskChans -->
<g id="edge18" class="edge">
<title>Masks&#45;&gt;MaskChans</title>
<path fill="none" stroke="black" d="M1129.27,-3310.58C1124.88,-3307.44 1120.01,-3304.59 1115,-3302.8 1063.7,-3284.45 675.81,-3303.47 625,-3283.8 611.67,-3278.64 599.23,-3269 589.4,-3259.7"/>
<polygon fill="black" stroke="black" points="591.65,-3257 582.1,-3252.41 586.7,-3261.95 591.65,-3257"/>
</g>
<!-- find_roi_by_decon_itself -->
<g id="node40" class="node">
<title>find_roi_by_decon_itself</title>
<ellipse fill="none" stroke="red" cx="511" cy="-2069.8" rx="99.38" ry="18"/>
<text text-anchor="middle" x="511" y="-2066.1" font-family="Times,serif" font-size="14.00">find_roi_by_decon_itself</text>
</g>
<!-- ROIForms&#45;&gt;find_roi_by_decon_itself -->
<g id="edge51" class="edge">
<title>ROIForms&#45;&gt;find_roi_by_decon_itself</title>
<path fill="none" stroke="black" d="M647.4,-2138.6C620.01,-2124.99 581.67,-2105.93 552.61,-2091.48"/>
<polygon fill="black" stroke="black" points="554.04,-2088.28 543.53,-2086.97 550.92,-2094.55 554.04,-2088.28"/>
</g>
<!-- find_roi_by_decon_itself_ind -->
<g id="node41" class="node">
<title>find_roi_by_decon_itself_ind</title>
<ellipse fill="none" stroke="red" cx="356" cy="-1923.8" rx="99.38" ry="18"/>
<text text-anchor="middle" x="356" y="-1920.1" font-family="Times,serif" font-size="14.00">find_roi_by_decon_itself</text>
</g>
<!-- ROIForms&#45;&gt;find_roi_by_decon_itself_ind -->
<g id="edge50" class="edge">
<title>ROIForms&#45;&gt;find_roi_by_decon_itself_ind</title>
<path fill="none" stroke="black" d="M675.28,-2138.62C665.74,-2116.13 646.33,-2076.66 619,-2051.8 559.69,-1997.86 473.33,-1962.11 415.95,-1942.65"/>
<polygon fill="black" stroke="black" points="416.88,-1939.27 406.29,-1939.44 414.67,-1945.91 416.88,-1939.27"/>
</g>
<!-- find_roi_loose -->
<g id="node44" class="node">
<title>find_roi_loose</title>
<ellipse fill="none" stroke="red" cx="356" cy="-1669.8" rx="61.99" ry="18"/>
<text text-anchor="middle" x="356" y="-1666.1" font-family="Times,serif" font-size="14.00">find_roi_loose</text>
</g>
<!-- ROIForms&#45;&gt;find_roi_loose -->
<g id="edge49" class="edge">
<title>ROIForms&#45;&gt;find_roi_loose</title>
<path fill="none" stroke="black" d="M681.03,-2138.55C680.16,-2121.38 679,-2094.28 679,-2070.8 679,-2070.8 679,-2070.8 679,-1741.8 679,-1690.7 522.82,-1676.33 427.66,-1672.32"/>
<polygon fill="black" stroke="black" points="427.64,-1668.82 417.51,-1671.93 427.37,-1675.82 427.64,-1668.82"/>
</g>
<!-- FieldResp -->
<g id="node5" class="node">
<title>FieldResp</title>
<polygon fill="none" stroke="black" points="830.5,-3346.8 759.5,-3346.8 759.5,-3310.8 830.5,-3310.8 830.5,-3346.8"/>
<text text-anchor="middle" x="795" y="-3325.1" font-family="Times,serif" font-size="14.00">FieldResp</text>
</g>
<!-- FFT_FR_time_domain -->
<g id="node23" class="node">
<title>FFT_FR_time_domain</title>
<ellipse fill="none" stroke="black" cx="352" cy="-3234.8" rx="46.29" ry="18"/>
<text text-anchor="middle" x="352" y="-3231.1" font-family="Times,serif" font-size="14.00">FFT_time</text>
</g>
<!-- FieldResp&#45;&gt;FFT_FR_time_domain -->
<g id="edge28" class="edge">
<title>FieldResp&#45;&gt;FFT_FR_time_domain</title>
<path fill="none" stroke="black" d="M768.76,-3310.59C762.81,-3307.45 756.36,-3304.6 750,-3302.8 681.67,-3283.46 498.4,-3306.15 431,-3283.8 412.84,-3277.78 394.45,-3266.95 379.99,-3257.1"/>
<polygon fill="black" stroke="black" points="381.73,-3254.04 371.54,-3251.15 377.7,-3259.76 381.73,-3254.04"/>
</g>
<!-- WireShift -->
<g id="node6" class="node">
<title>WireShift</title>
<polygon fill="none" stroke="black" points="1103,-3346.8 1033,-3346.8 1033,-3310.8 1103,-3310.8 1103,-3346.8"/>
<text text-anchor="middle" x="1068" y="-3325.1" font-family="Times,serif" font-size="14.00">WireShift</text>
</g>
<!-- WirePadding -->
<g id="node7" class="node">
<title>WirePadding</title>
<polygon fill="none" stroke="black" points="741,-3346.8 653,-3346.8 653,-3310.8 741,-3310.8 741,-3346.8"/>
<text text-anchor="middle" x="697" y="-3325.1" font-family="Times,serif" font-size="14.00">WirePadding</text>
</g>
<!-- nFFTticks -->
<g id="node8" class="node">
<title>nFFTticks</title>
<polygon fill="none" stroke="black" points="921,-3346.8 849,-3346.8 849,-3310.8 921,-3310.8 921,-3346.8"/>
<text text-anchor="middle" x="885" y="-3325.1" font-family="Times,serif" font-size="14.00">nFFTticks</text>
</g>
<!-- a -->
<!-- nFFTticks&#45;&gt;a -->
<g id="edge20" class="edge">
<title>nFFTticks&#45;&gt;a</title>
<path fill="none" stroke="black" d="M858.12,-3310.65C852.04,-3307.51 845.47,-3304.64 839,-3302.8 770.78,-3283.37 587.97,-3315.81 515.13,-3287.93"/>
<polygon fill="black" stroke="black" points="516.55,-3284.73 506,-3283.8 513.67,-3291.11 516.55,-3284.73"/>
</g>
<!-- nFFTwires -->
<g id="node9" class="node">
<title>nFFTwires</title>
<polygon fill="none" stroke="black" points="1015,-3346.8 939,-3346.8 939,-3310.8 1015,-3310.8 1015,-3346.8"/>
<text text-anchor="middle" x="977" y="-3325.1" font-family="Times,serif" font-size="14.00">nFFTwires</text>
</g>
<!-- nFFTwires&#45;&gt;a -->
<g id="edge19" class="edge">
<title>nFFTwires&#45;&gt;a</title>
<path fill="none" stroke="black" d="M949.77,-3310.71C943.49,-3307.52 936.69,-3304.62 930,-3302.8 887.08,-3291.1 584.9,-3304.2 515.82,-3287.2"/>
<polygon fill="black" stroke="black" points="516.59,-3283.77 506,-3283.8 514.3,-3290.38 516.59,-3283.77"/>
</g>
<!-- LoadFieldResp -->
<g id="node10" class="node">
<title>LoadFieldResp</title>
<ellipse fill="none" stroke="black" cx="885" cy="-3453.8" rx="64.19" ry="18"/>
<text text-anchor="middle" x="885" y="-3450.1" font-family="Times,serif" font-size="14.00">LoadFieldResp</text>
</g>
<!-- LoadFieldResp&#45;&gt;FieldResp -->
<g id="edge1" class="edge">
<title>LoadFieldResp&#45;&gt;FieldResp</title>
<path fill="none" stroke="black" d="M865.85,-3436.31C857.37,-3428.47 847.61,-3418.66 840,-3408.8 827.38,-3392.45 815.91,-3372.18 807.7,-3356.26"/>
<polygon fill="black" stroke="black" points="810.66,-3354.35 803.04,-3346.99 804.41,-3357.49 810.66,-3354.35"/>
</g>
<!-- LoadFieldResp&#45;&gt;WireShift -->
<g id="edge2" class="edge">
<title>LoadFieldResp&#45;&gt;WireShift</title>
<path fill="none" stroke="black" d="M929.29,-3440.55C967.05,-3429.82 1016.4,-3415 1024,-3408.8 1040.57,-3395.27 1051.97,-3373.77 1059,-3356.6"/>
<polygon fill="black" stroke="black" points="1062.34,-3357.69 1062.65,-3347.1 1055.8,-3355.18 1062.34,-3357.69"/>
</g>
<!-- LoadFieldResp&#45;&gt;WirePadding -->
<g id="edge3" class="edge">
<title>LoadFieldResp&#45;&gt;WirePadding</title>
<path fill="none" stroke="black" d="M831.16,-3443.85C804.73,-3437.43 773.59,-3426.64 750,-3408.8 731.88,-3395.1 717.94,-3373.32 708.91,-3356.09"/>
<polygon fill="black" stroke="black" points="712,-3354.46 704.4,-3347.07 705.74,-3357.58 712,-3354.46"/>
</g>
<!-- LoadFieldResp&#45;&gt;nFFTticks -->
<g id="edge4" class="edge">
<title>LoadFieldResp&#45;&gt;nFFTticks</title>
<path fill="none" stroke="black" d="M885,-3435.7C885,-3415.43 885,-3381.4 885,-3357.39"/>
<polygon fill="black" stroke="black" points="888.5,-3357.15 885,-3347.15 881.5,-3357.15 888.5,-3357.15"/>
</g>
<!-- LoadFieldResp&#45;&gt;nFFTwires -->
<g id="edge5" class="edge">
<title>LoadFieldResp&#45;&gt;nFFTwires</title>
<path fill="none" stroke="black" d="M904.07,-3436.24C912.53,-3428.39 922.3,-3418.59 930,-3408.8 942.91,-3392.39 954.9,-3372.12 963.54,-3356.22"/>
<polygon fill="black" stroke="black" points="966.86,-3357.43 968.47,-3346.96 960.68,-3354.14 966.86,-3357.43"/>
</g>
<!-- Add -->
<g id="node13" class="node">
<title>Add</title>
<ellipse fill="black" stroke="black" cx="568" cy="-3161.8" rx="1.8" ry="1.8"/>
</g>
<!-- MaskChans&#45;&gt;Add -->
<g id="edge22" class="edge">
<title>MaskChans&#45;&gt;Add</title>
<path fill="none" stroke="black" d="M568,-3216.61C568,-3203.37 568,-3185.45 568,-3174.01"/>
<polygon fill="black" stroke="black" points="571.5,-3173.63 568,-3163.63 564.5,-3173.63 571.5,-3173.63"/>
</g>
<!-- RebaseWFs -->
<g id="node14" class="node">
<title>RebaseWFs</title>
<ellipse fill="none" stroke="red" cx="532" cy="-3088.8" rx="53.09" ry="18"/>
<text text-anchor="middle" x="532" y="-3085.1" font-family="Times,serif" font-size="14.00">RebaseWFs</text>
</g>
<!-- Add&#45;&gt;RebaseWFs -->
<g id="edge23" class="edge">
<title>Add&#45;&gt;RebaseWFs</title>
<path fill="none" stroke="black" d="M567.6,-3160C565.37,-3155.62 554.4,-3133.98 545.22,-3115.87"/>
<polygon fill="black" stroke="black" points="548.28,-3114.17 540.63,-3106.83 542.04,-3117.33 548.28,-3114.17"/>
</g>
<!-- FFT_time -->
<g id="node15" class="node">
<title>FFT_time</title>
<ellipse fill="none" stroke="black" cx="373" cy="-3015.8" rx="46.29" ry="18"/>
<text text-anchor="middle" x="373" y="-3012.1" font-family="Times,serif" font-size="14.00">FFT_time</text>
</g>
<!-- RebaseWFs&#45;&gt;FFT_time -->
<g id="edge24" class="edge">
<title>RebaseWFs&#45;&gt;FFT_time</title>
<path fill="none" stroke="black" d="M500.97,-3073.94C475.34,-3062.5 438.85,-3046.2 411.38,-3033.94"/>
<polygon fill="black" stroke="black" points="412.64,-3030.67 402.08,-3029.79 409.78,-3037.06 412.64,-3030.67"/>
</g>
<!-- ApplyResp -->
<g id="node34" class="node">
<title>ApplyResp</title>
<ellipse fill="none" stroke="black" cx="226" cy="-2921.8" rx="50.09" ry="18"/>
<text text-anchor="middle" x="226" y="-2918.1" font-family="Times,serif" font-size="14.00">ApplyResp</text>
</g>
<!-- FFT_time&#45;&gt;ApplyResp -->
<g id="edge26" class="edge">
<title>FFT_time&#45;&gt;ApplyResp</title>
<path fill="none" stroke="black" d="M341.24,-3002.44C322.68,-2994.58 299.22,-2983.51 280,-2970.8 269.32,-2963.74 258.57,-2954.67 249.5,-2946.33"/>
<polygon fill="black" stroke="black" points="251.69,-2943.57 242.01,-2939.25 246.88,-2948.66 251.69,-2943.57"/>
</g>
<!-- ElecResp -->
<g id="node16" class="node">
<title>ElecResp</title>
<polygon fill="none" stroke="black" points="185,-3346.8 117,-3346.8 117,-3310.8 185,-3310.8 185,-3346.8"/>
<text text-anchor="middle" x="151" y="-3325.1" font-family="Times,serif" font-size="14.00">ElecResp</text>
</g>
<!-- ElecRespFFT_time -->
<g id="node20" class="node">
<title>ElecRespFFT_time</title>
<ellipse fill="none" stroke="black" cx="151" cy="-3234.8" rx="79.09" ry="18"/>
<text text-anchor="middle" x="151" y="-3231.1" font-family="Times,serif" font-size="14.00">ElecRespFFT_time</text>
</g>
<!-- ElecResp&#45;&gt;ElecRespFFT_time -->
<g id="edge6" class="edge">
<title>ElecResp&#45;&gt;ElecRespFFT_time</title>
<path fill="none" stroke="black" d="M151,-3310.5C151,-3297.26 151,-3278.75 151,-3263.46"/>
<polygon fill="black" stroke="black" points="154.5,-3263.03 151,-3253.03 147.5,-3263.03 154.5,-3263.03"/>
</g>
<!-- ChanResp -->
<g id="node17" class="node">
<title>ChanResp</title>
<polygon fill="none" stroke="black" points="262,-3106.8 190,-3106.8 190,-3070.8 262,-3070.8 262,-3106.8"/>
<text text-anchor="middle" x="226" y="-3085.1" font-family="Times,serif" font-size="14.00">ChanResp</text>
</g>
<!-- ChanRespFFT_time -->
<g id="node21" class="node">
<title>ChanRespFFT_time</title>
<ellipse fill="none" stroke="black" cx="226" cy="-3015.8" rx="82.59" ry="18"/>
<text text-anchor="middle" x="226" y="-3012.1" font-family="Times,serif" font-size="14.00">ChanRespFFT_time</text>
</g>
<!-- ChanResp&#45;&gt;ChanRespFFT_time -->
<g id="edge7" class="edge">
<title>ChanResp&#45;&gt;ChanRespFFT_time</title>
<path fill="none" stroke="black" d="M226,-3070.61C226,-3062.59 226,-3052.85 226,-3043.87"/>
<polygon fill="black" stroke="black" points="229.5,-3043.83 226,-3033.83 222.5,-3043.83 229.5,-3043.83"/>
</g>
<!-- Redigitize -->
<g id="node18" class="node">
<title>Redigitize</title>
<ellipse fill="none" stroke="black" cx="79" cy="-3015.8" rx="46.59" ry="18"/>
<text text-anchor="middle" x="79" y="-3012.1" font-family="Times,serif" font-size="14.00">Redigitize</text>
</g>
<!-- FFT_time2 -->
<g id="node25" class="node">
<title>FFT_time2</title>
<ellipse fill="none" stroke="black" cx="96" cy="-2921.8" rx="46.29" ry="18"/>
<text text-anchor="middle" x="96" y="-2918.1" font-family="Times,serif" font-size="14.00">FFT_time</text>
</g>
<!-- Redigitize&#45;&gt;FFT_time2 -->
<g id="edge12" class="edge">
<title>Redigitize&#45;&gt;FFT_time2</title>
<path fill="none" stroke="black" d="M82.2,-2997.5C84.67,-2984.13 88.13,-2965.39 90.97,-2950.02"/>
<polygon fill="black" stroke="black" points="94.44,-2950.5 92.82,-2940.03 87.56,-2949.22 94.44,-2950.5"/>
</g>
<!-- Combine -->
<g id="node19" class="node">
<title>Combine</title>
<ellipse fill="none" stroke="black" cx="151" cy="-3161.8" rx="43.59" ry="18"/>
<text text-anchor="middle" x="151" y="-3158.1" font-family="Times,serif" font-size="14.00">Combine</text>
</g>
<!-- invFFT_time -->
<g id="node24" class="node">
<title>invFFT_time</title>
<ellipse fill="none" stroke="black" cx="102" cy="-3088.8" rx="57.69" ry="18"/>
<text text-anchor="middle" x="102" y="-3085.1" font-family="Times,serif" font-size="14.00">invFFT_time</text>
</g>
<!-- Combine&#45;&gt;invFFT_time -->
<g id="edge10" class="edge">
<title>Combine&#45;&gt;invFFT_time</title>
<path fill="none" stroke="black" d="M139.64,-3144.33C133.66,-3135.68 126.21,-3124.88 119.51,-3115.18"/>
<polygon fill="black" stroke="black" points="122.2,-3112.91 113.64,-3106.67 116.44,-3116.89 122.2,-3112.91"/>
</g>
<!-- ElecRespFFT_time&#45;&gt;Combine -->
<g id="edge8" class="edge">
<title>ElecRespFFT_time&#45;&gt;Combine</title>
<path fill="none" stroke="black" d="M151,-3216.61C151,-3208.59 151,-3198.85 151,-3189.87"/>
<polygon fill="black" stroke="black" points="154.5,-3189.83 151,-3179.83 147.5,-3189.83 154.5,-3189.83"/>
</g>
<!-- ChanRespFFT_time&#45;&gt;ApplyResp -->
<g id="edge25" class="edge">
<title>ChanRespFFT_time&#45;&gt;ApplyResp</title>
<path fill="none" stroke="black" d="M226,-2997.5C226,-2984.26 226,-2965.75 226,-2950.46"/>
<polygon fill="black" stroke="black" points="229.5,-2950.03 226,-2940.03 222.5,-2950.03 229.5,-2950.03"/>
</g>
<!-- FFT_wire -->
<g id="node22" class="node">
<title>FFT_wire</title>
<ellipse fill="none" stroke="black" cx="226" cy="-2848.8" rx="46.29" ry="18"/>
<text text-anchor="middle" x="226" y="-2845.1" font-family="Times,serif" font-size="14.00">FFT_wire</text>
</g>
<!-- ApplyFieldResp -->
<g id="node27" class="node">
<title>ApplyFieldResp</title>
<ellipse fill="none" stroke="black" cx="226" cy="-2775.8" rx="68.49" ry="18"/>
<text text-anchor="middle" x="226" y="-2772.1" font-family="Times,serif" font-size="14.00">ApplyFieldResp</text>
</g>
<!-- FFT_wire&#45;&gt;ApplyFieldResp -->
<g id="edge29" class="edge">
<title>FFT_wire&#45;&gt;ApplyFieldResp</title>
<path fill="none" stroke="black" d="M226,-2830.61C226,-2822.59 226,-2812.85 226,-2803.87"/>
<polygon fill="black" stroke="black" points="229.5,-2803.83 226,-2793.83 222.5,-2803.83 229.5,-2803.83"/>
</g>
<!-- FFT_FR_time_domain&#45;&gt;Combine -->
<g id="edge9" class="edge">
<title>FFT_FR_time_domain&#45;&gt;Combine</title>
<path fill="none" stroke="black" d="M318.81,-3222.08C284.21,-3209.86 229.92,-3190.68 192.51,-3177.46"/>
<polygon fill="black" stroke="black" points="193.51,-3174.1 182.91,-3174.07 191.17,-3180.7 193.51,-3174.1"/>
</g>
<!-- invFFT_time&#45;&gt;Redigitize -->
<g id="edge11" class="edge">
<title>invFFT_time&#45;&gt;Redigitize</title>
<path fill="none" stroke="black" d="M96.43,-3070.61C93.8,-3062.5 90.61,-3052.64 87.67,-3043.58"/>
<polygon fill="black" stroke="black" points="90.93,-3042.26 84.52,-3033.83 84.27,-3044.42 90.93,-3042.26"/>
</g>
<!-- FFT_wire2 -->
<g id="node26" class="node">
<title>FFT_wire2</title>
<ellipse fill="none" stroke="black" cx="106" cy="-2848.8" rx="46.29" ry="18"/>
<text text-anchor="middle" x="106" y="-2845.1" font-family="Times,serif" font-size="14.00">FFT_wire</text>
</g>
<!-- FFT_time2&#45;&gt;FFT_wire2 -->
<g id="edge13" class="edge">
<title>FFT_time2&#45;&gt;FFT_wire2</title>
<path fill="none" stroke="black" d="M98.42,-2903.61C99.55,-2895.59 100.92,-2885.85 102.19,-2876.87"/>
<polygon fill="black" stroke="black" points="105.67,-2877.22 103.6,-2866.83 98.74,-2876.24 105.67,-2877.22"/>
</g>
<!-- FFT_wire2&#45;&gt;ApplyFieldResp -->
<g id="edge30" class="edge">
<title>FFT_wire2&#45;&gt;ApplyFieldResp</title>
<path fill="none" stroke="black" d="M130.28,-2833.43C147.55,-2823.22 171.01,-2809.33 190.39,-2797.87"/>
<polygon fill="black" stroke="black" points="192.42,-2800.73 199.25,-2792.63 188.86,-2794.71 192.42,-2800.73"/>
</g>
<!-- ApplyHfFilter -->
<g id="node28" class="node">
<title>ApplyHfFilter</title>
<ellipse fill="none" stroke="black" cx="250" cy="-2702.8" rx="66.09" ry="18"/>
<text text-anchor="middle" x="250" y="-2699.1" font-family="Times,serif" font-size="14.00">Gaus wire filter</text>
</g>
<!-- ApplyFieldResp&#45;&gt;ApplyHfFilter -->
<g id="edge31" class="edge">
<title>ApplyFieldResp&#45;&gt;ApplyHfFilter</title>
<path fill="none" stroke="black" d="M227.11,-2757.67C227.83,-2751.6 229.03,-2744.79 231,-2738.8 231.98,-2735.81 233.22,-2732.78 234.58,-2729.81"/>
<polygon fill="black" stroke="black" points="237.81,-2731.19 239.24,-2720.69 231.58,-2728 237.81,-2731.19"/>
</g>
<!-- Inv_FFT_wire -->
<g id="node29" class="node">
<title>Inv_FFT_wire</title>
<ellipse fill="none" stroke="black" cx="262" cy="-2629.8" rx="61.99" ry="18"/>
<text text-anchor="middle" x="262" y="-2626.1" font-family="Times,serif" font-size="14.00">Inv_FFT_wire</text>
</g>
<!-- ApplyHfFilter&#45;&gt;Inv_FFT_wire -->
<g id="edge32" class="edge">
<title>ApplyHfFilter&#45;&gt;Inv_FFT_wire</title>
<path fill="none" stroke="black" d="M252.18,-2684.56C252.99,-2678.6 253.97,-2671.9 255,-2665.8 255.43,-2663.23 255.91,-2660.57 256.41,-2657.9"/>
<polygon fill="black" stroke="black" points="259.9,-2658.34 258.38,-2647.85 253.03,-2657 259.9,-2658.34"/>
</g>
<!-- Inv_FFT_time -->
<g id="node30" class="node">
<title>Inv_FFT_time</title>
<ellipse fill="none" stroke="black" cx="268" cy="-2556.8" rx="62.29" ry="18"/>
<text text-anchor="middle" x="268" y="-2553.1" font-family="Times,serif" font-size="14.00">Inv_FFT_time</text>
</g>
<!-- Inv_FFT_wire&#45;&gt;Inv_FFT_time -->
<g id="edge33" class="edge">
<title>Inv_FFT_wire&#45;&gt;Inv_FFT_time</title>
<path fill="none" stroke="black" d="M263.45,-2611.61C264.13,-2603.59 264.95,-2593.85 265.71,-2584.87"/>
<polygon fill="black" stroke="black" points="269.21,-2585.09 266.56,-2574.83 262.23,-2584.5 269.21,-2585.09"/>
</g>
<!-- ShiftWire -->
<g id="node31" class="node">
<title>ShiftWire</title>
<ellipse fill="none" stroke="black" cx="271" cy="-2483.8" rx="45.49" ry="18"/>
<text text-anchor="middle" x="271" y="-2480.1" font-family="Times,serif" font-size="14.00">ShiftWire</text>
</g>
<!-- Inv_FFT_time&#45;&gt;ShiftWire -->
<g id="edge34" class="edge">
<title>Inv_FFT_time&#45;&gt;ShiftWire</title>
<path fill="none" stroke="black" d="M268.73,-2538.61C269.07,-2530.59 269.48,-2520.85 269.86,-2511.87"/>
<polygon fill="black" stroke="black" points="273.36,-2511.97 270.28,-2501.83 266.36,-2511.67 273.36,-2511.97"/>
</g>
<!-- ShiftTime -->
<g id="node32" class="node">
<title>ShiftTime</title>
<ellipse fill="none" stroke="black" cx="272" cy="-2410.8" rx="46.59" ry="18"/>
<text text-anchor="middle" x="272" y="-2407.1" font-family="Times,serif" font-size="14.00">ShiftTime</text>
</g>
<!-- ShiftWire&#45;&gt;ShiftTime -->
<g id="edge35" class="edge">
<title>ShiftWire&#45;&gt;ShiftTime</title>
<path fill="none" stroke="black" d="M271.24,-2465.61C271.36,-2457.59 271.49,-2447.85 271.62,-2438.87"/>
<polygon fill="black" stroke="black" points="275.12,-2438.88 271.76,-2428.83 268.12,-2438.78 275.12,-2438.88"/>
</g>
<!-- FFT_time_2 -->
<g id="node33" class="node">
<title>FFT_time_2</title>
<ellipse fill="none" stroke="black" cx="273" cy="-2337.8" rx="55.49" ry="18"/>
<text text-anchor="middle" x="273" y="-2334.1" font-family="Times,serif" font-size="14.00">FFT_time_2</text>
</g>
<!-- ShiftTime&#45;&gt;FFT_time_2 -->
<g id="edge36" class="edge">
<title>ShiftTime&#45;&gt;FFT_time_2</title>
<path fill="none" stroke="black" d="M272.24,-2392.61C272.36,-2384.59 272.49,-2374.85 272.62,-2365.87"/>
<polygon fill="black" stroke="black" points="276.12,-2365.88 272.76,-2355.83 269.12,-2365.78 276.12,-2365.88"/>
</g>
<!-- IsInductionPlane -->
<g id="node35" class="node">
<title>IsInductionPlane</title>
<polygon fill="none" stroke="black" points="282,-2261.8 182.96,-2243.8 282,-2225.8 381.04,-2243.8 282,-2261.8"/>
<text text-anchor="middle" x="282" y="-2240.1" font-family="Times,serif" font-size="14.00">IsInductionPlane</text>
</g>
<!-- FFT_time_2&#45;&gt;IsInductionPlane -->
<g id="edge37" class="edge">
<title>FFT_time_2&#45;&gt;IsInductionPlane</title>
<path fill="none" stroke="black" d="M274.69,-2319.5C276.01,-2306.05 277.86,-2287.15 279.37,-2271.73"/>
<polygon fill="black" stroke="black" points="282.85,-2272.01 280.35,-2261.72 275.89,-2271.33 282.85,-2272.01"/>
</g>
<!-- ApplyResp&#45;&gt;FFT_wire -->
<g id="edge27" class="edge">
<title>ApplyResp&#45;&gt;FFT_wire</title>
<path fill="none" stroke="black" d="M226,-2895.8C226,-2889.68 226,-2883.09 226,-2876.87"/>
<polygon fill="black" stroke="black" points="229.5,-2876.83 226,-2866.83 222.5,-2876.83 229.5,-2876.83"/>
</g>
<!-- UseROIRefine -->
<g id="node36" class="node">
<title>UseROIRefine</title>
<polygon fill="none" stroke="black" points="282,-2174.8 192.68,-2156.8 282,-2138.8 371.32,-2156.8 282,-2174.8"/>
<text text-anchor="middle" x="282" y="-2153.1" font-family="Times,serif" font-size="14.00">UseROIRefine</text>
</g>
<!-- IsInductionPlane&#45;&gt;UseROIRefine -->
<g id="edge40" class="edge">
<title>IsInductionPlane&#45;&gt;UseROIRefine</title>
<path fill="none" stroke="black" d="M282,-2225.6C282,-2213.96 282,-2198.35 282,-2185.04"/>
<polygon fill="black" stroke="black" points="285.5,-2184.98 282,-2174.98 278.5,-2184.98 285.5,-2184.98"/>
<text text-anchor="middle" x="291.5" y="-2196.6" font-family="Times,serif" font-size="14.00">yes</text>
</g>
<!-- decon_2D_tightROI_coll -->
<g id="node39" class="node">
<title>decon_2D_tightROI_coll</title>
<ellipse fill="none" stroke="red" cx="491" cy="-2156.8" rx="82.59" ry="18"/>
<text text-anchor="middle" x="491" y="-2153.1" font-family="Times,serif" font-size="14.00">decon_2D_tightROI</text>
</g>
<!-- IsInductionPlane&#45;&gt;decon_2D_tightROI_coll -->
<g id="edge38" class="edge">
<title>IsInductionPlane&#45;&gt;decon_2D_tightROI_coll</title>
<path fill="none" stroke="black" d="M308.47,-2230.32C331.01,-2219.85 364.37,-2204.74 394,-2192.8 408.58,-2186.93 424.56,-2180.97 439.27,-2175.67"/>
<polygon fill="black" stroke="black" points="440.49,-2178.95 448.73,-2172.29 438.13,-2172.36 440.49,-2178.95"/>
<text text-anchor="middle" x="401" y="-2196.6" font-family="Times,serif" font-size="14.00">no</text>
</g>
<!-- decon_2D_tighterROI -->
<g id="node37" class="node">
<title>decon_2D_tighterROI</title>
<ellipse fill="none" stroke="red" cx="305" cy="-2069.8" rx="89.08" ry="18"/>
<text text-anchor="middle" x="305" y="-2066.1" font-family="Times,serif" font-size="14.00">decon_2D_tighterROI</text>
</g>
<!-- UseROIRefine&#45;&gt;decon_2D_tighterROI -->
<g id="edge41" class="edge">
<title>UseROIRefine&#45;&gt;decon_2D_tighterROI</title>
<path fill="none" stroke="black" d="M286.43,-2139.41C289.62,-2127.65 293.98,-2111.53 297.68,-2097.87"/>
<polygon fill="black" stroke="black" points="301.11,-2098.58 300.34,-2088.01 294.35,-2096.75 301.11,-2098.58"/>
<text text-anchor="middle" x="304.5" y="-2109.6" font-family="Times,serif" font-size="14.00">yes</text>
</g>
<!-- decon_2D_tightROI_ind -->
<g id="node38" class="node">
<title>decon_2D_tightROI_ind</title>
<ellipse fill="none" stroke="red" cx="305" cy="-1996.8" rx="82.59" ry="18"/>
<text text-anchor="middle" x="305" y="-1993.1" font-family="Times,serif" font-size="14.00">decon_2D_tightROI</text>
</g>
<!-- UseROIRefine&#45;&gt;decon_2D_tightROI_ind -->
<g id="edge43" class="edge">
<title>UseROIRefine&#45;&gt;decon_2D_tightROI_ind</title>
<path fill="none" stroke="black" d="M256.41,-2143.81C221.08,-2125.53 164.26,-2088.91 188,-2051.8 199.61,-2033.66 219.03,-2021.53 238.74,-2013.45"/>
<polygon fill="black" stroke="black" points="239.99,-2016.72 248.1,-2009.91 237.51,-2010.17 239.99,-2016.72"/>
<text text-anchor="middle" x="197.5" y="-2066.1" font-family="Times,serif" font-size="14.00">yes</text>
</g>
<!-- decon_2D_tighterROI&#45;&gt;decon_2D_tightROI_ind -->
<g id="edge42" class="edge">
<title>decon_2D_tighterROI&#45;&gt;decon_2D_tightROI_ind</title>
<path fill="none" stroke="black" d="M305,-2051.61C305,-2043.59 305,-2033.85 305,-2024.87"/>
<polygon fill="black" stroke="black" points="308.5,-2024.83 305,-2014.83 301.5,-2024.83 308.5,-2024.83"/>
</g>
<!-- decon_2D_tightROI_ind&#45;&gt;find_roi_by_decon_itself_ind -->
<g id="edge44" class="edge">
<title>decon_2D_tightROI_ind&#45;&gt;find_roi_by_decon_itself_ind</title>
<path fill="none" stroke="black" d="M317.09,-1978.97C323.22,-1970.43 330.8,-1959.88 337.64,-1950.36"/>
<polygon fill="black" stroke="black" points="340.65,-1952.16 343.65,-1942 334.97,-1948.08 340.65,-1952.16"/>
</g>
<!-- decon_2D_tightROI_coll&#45;&gt;find_roi_by_decon_itself -->
<g id="edge39" class="edge">
<title>decon_2D_tightROI_coll&#45;&gt;find_roi_by_decon_itself</title>
<path fill="none" stroke="black" d="M495.05,-2138.6C497.79,-2126.96 501.46,-2111.35 504.59,-2098.04"/>
<polygon fill="black" stroke="black" points="508.08,-2098.51 506.96,-2087.98 501.26,-2096.91 508.08,-2098.51"/>
</g>
<!-- ROIRefine_do_load_data_coll -->
<g id="node47" class="node">
<title>ROIRefine_do_load_data_coll</title>
<ellipse fill="none" stroke="red" cx="503" cy="-1502.8" rx="118.08" ry="18"/>
<text text-anchor="middle" x="503" y="-1499.1" font-family="Times,serif" font-size="14.00">ROIRefine_do_load_data_coll</text>
</g>
<!-- find_roi_by_decon_itself&#45;&gt;ROIRefine_do_load_data_coll -->
<g id="edge53" class="edge">
<title>find_roi_by_decon_itself&#45;&gt;ROIRefine_do_load_data_coll</title>
<path fill="none" stroke="black" d="M509.87,-2051.59C509.02,-2037.22 508,-2016.18 508,-1997.8 508,-1997.8 508,-1997.8 508,-1595.8 508,-1574.11 506.6,-1549.58 505.28,-1531.31"/>
<polygon fill="black" stroke="black" points="508.75,-1530.79 504.5,-1521.08 501.77,-1531.32 508.75,-1530.79"/>
</g>
<!-- UseROIRefineLoose -->
<g id="node42" class="node">
<title>UseROIRefineLoose</title>
<polygon fill="none" stroke="black" points="356,-1847.8 266.68,-1829.8 356,-1811.8 445.32,-1829.8 356,-1847.8"/>
<text text-anchor="middle" x="356" y="-1826.1" font-family="Times,serif" font-size="14.00">UseROIRefine</text>
</g>
<!-- find_roi_by_decon_itself_ind&#45;&gt;UseROIRefineLoose -->
<g id="edge45" class="edge">
<title>find_roi_by_decon_itself_ind&#45;&gt;UseROIRefineLoose</title>
<path fill="none" stroke="black" d="M356,-1905.5C356,-1892.26 356,-1873.75 356,-1858.46"/>
<polygon fill="black" stroke="black" points="359.5,-1858.03 356,-1848.03 352.5,-1858.03 359.5,-1858.03"/>
</g>
<!-- decon_2D_looseROI -->
<g id="node43" class="node">
<title>decon_2D_looseROI</title>
<ellipse fill="none" stroke="red" cx="356" cy="-1742.8" rx="85.29" ry="18"/>
<text text-anchor="middle" x="356" y="-1739.1" font-family="Times,serif" font-size="14.00">decon_2D_looseROI</text>
</g>
<!-- UseROIRefineLoose&#45;&gt;decon_2D_looseROI -->
<g id="edge46" class="edge">
<title>UseROIRefineLoose&#45;&gt;decon_2D_looseROI</title>
<path fill="none" stroke="black" d="M356,-1811.6C356,-1799.96 356,-1784.35 356,-1771.04"/>
<polygon fill="black" stroke="black" points="359.5,-1770.98 356,-1760.98 352.5,-1770.98 359.5,-1770.98"/>
<text text-anchor="middle" x="365.5" y="-1782.6" font-family="Times,serif" font-size="14.00">yes</text>
</g>
<!-- decon_2D_looseROI&#45;&gt;find_roi_loose -->
<g id="edge47" class="edge">
<title>decon_2D_looseROI&#45;&gt;find_roi_loose</title>
<path fill="none" stroke="black" d="M356,-1724.61C356,-1716.59 356,-1706.85 356,-1697.87"/>
<polygon fill="black" stroke="black" points="359.5,-1697.83 356,-1687.83 352.5,-1697.83 359.5,-1697.83"/>
</g>
<!-- decon_2D_ROI_refine -->
<g id="node45" class="node">
<title>decon_2D_ROI_refine</title>
<ellipse fill="none" stroke="red" cx="355" cy="-1596.8" rx="90.98" ry="18"/>
<text text-anchor="middle" x="355" y="-1593.1" font-family="Times,serif" font-size="14.00">decon_2D_ROI_refine</text>
</g>
<!-- find_roi_loose&#45;&gt;decon_2D_ROI_refine -->
<g id="edge48" class="edge">
<title>find_roi_loose&#45;&gt;decon_2D_ROI_refine</title>
<path fill="none" stroke="black" d="M355.76,-1651.61C355.64,-1643.59 355.51,-1633.85 355.38,-1624.87"/>
<polygon fill="black" stroke="black" points="358.88,-1624.78 355.24,-1614.83 351.88,-1624.88 358.88,-1624.78"/>
</g>
<!-- ROIRefine_do_load_data_ind -->
<g id="node46" class="node">
<title>ROIRefine_do_load_data_ind</title>
<ellipse fill="none" stroke="red" cx="250" cy="-1502.8" rx="116.18" ry="18"/>
<text text-anchor="middle" x="250" y="-1499.1" font-family="Times,serif" font-size="14.00">ROIRefine_do_load_data_ind</text>
</g>
<!-- decon_2D_ROI_refine&#45;&gt;ROIRefine_do_load_data_ind -->
<g id="edge52" class="edge">
<title>decon_2D_ROI_refine&#45;&gt;ROIRefine_do_load_data_ind</title>
<path fill="none" stroke="black" d="M335.74,-1578.93C319.31,-1564.53 295.5,-1543.67 277.14,-1527.58"/>
<polygon fill="black" stroke="black" points="278.96,-1524.52 269.14,-1520.57 274.35,-1529.79 278.96,-1524.52"/>
</g>
<!-- dummy -->
<!-- ROIRefine_do_load_data_coll&#45;&gt;dummy -->
<!-- cleanup_ROIs_in_plane -->
<g id="node49" class="node">
<title>cleanup_ROIs_in_plane</title>
<ellipse fill="none" stroke="black" cx="503" cy="-1368.2" rx="95.58" ry="18"/>
<text text-anchor="middle" x="503" y="-1364.5" font-family="Times,serif" font-size="14.00">cleanup_ROIs_in_plane</text>
</g>
<!-- dummy&#45;&gt;cleanup_ROIs_in_plane -->
<g id="edge55" class="edge">
<title>dummy&#45;&gt;cleanup_ROIs_in_plane</title>
<path fill="none" stroke="black" d="M503,-1436.2C503,-1433.66 503,-1430.69 503,-1427.43"/>
<polygon fill="black" stroke="black" points="506.5,-1427.2 503,-1417.2 499.5,-1427.2 506.5,-1427.2"/>
</g>
<!-- generate_merge_ROIs_in_plane -->
<g id="node50" class="node">
<title>generate_merge_ROIs_in_plane</title>
<ellipse fill="none" stroke="black" cx="503" cy="-1295.2" rx="124.58" ry="18"/>
<text text-anchor="middle" x="503" y="-1291.5" font-family="Times,serif" font-size="14.00">generate_merge_ROIs_in_plane</text>
</g>
<!-- cleanup_ROIs_in_plane&#45;&gt;generate_merge_ROIs_in_plane -->
<g id="edge56" class="edge">
<title>cleanup_ROIs_in_plane&#45;&gt;generate_merge_ROIs_in_plane</title>
<path fill="none" stroke="black" d="M503,-1350.01C503,-1341.99 503,-1332.25 503,-1323.27"/>
<polygon fill="black" stroke="black" points="506.5,-1323.23 503,-1313.23 499.5,-1323.23 506.5,-1323.23"/>
</g>
<!-- MP3ROI -->
<g id="node51" class="node">
<title>MP3ROI</title>
<ellipse fill="none" stroke="black" cx="503" cy="-1201.2" rx="43.59" ry="18"/>
<text text-anchor="middle" x="503" y="-1197.5" font-family="Times,serif" font-size="14.00">MP3ROI</text>
</g>
<!-- generate_merge_ROIs_in_plane&#45;&gt;MP3ROI -->
<g id="edge57" class="edge">
<title>generate_merge_ROIs_in_plane&#45;&gt;MP3ROI</title>
<path fill="none" stroke="black" d="M503,-1276.9C503,-1271.98 503,-1266.33 503,-1260.39"/>
<polygon fill="black" stroke="black" points="506.5,-1260.2 503,-1250.2 499.5,-1260.2 506.5,-1260.2"/>
</g>
<!-- MP2ROI -->
<g id="node52" class="node">
<title>MP2ROI</title>
<ellipse fill="none" stroke="black" cx="503" cy="-1128.2" rx="43.59" ry="18"/>
<text text-anchor="middle" x="503" y="-1124.5" font-family="Times,serif" font-size="14.00">MP2ROI</text>
</g>
<!-- MP3ROI&#45;&gt;MP2ROI -->
<g id="edge58" class="edge">
<title>MP3ROI&#45;&gt;MP2ROI</title>
<path fill="none" stroke="black" d="M503,-1183.01C503,-1174.99 503,-1165.25 503,-1156.27"/>
<polygon fill="black" stroke="black" points="506.5,-1156.23 503,-1146.23 499.5,-1156.23 506.5,-1156.23"/>
</g>
<!-- dummy2 -->
<!-- MP2ROI&#45;&gt;dummy2 -->
<!-- dummy3 -->
<!-- dummy2&#45;&gt;dummy3 -->
<g id="edge60" class="edge">
<title>dummy2&#45;&gt;dummy3</title>
<path fill="none" stroke="black" d="M503,-1061.6C503,-1058.98 503,-1055.91 503,-1052.61"/>
<polygon fill="black" stroke="black" points="506.5,-1052.6 503,-1042.6 499.5,-1052.6 506.5,-1052.6"/>
</g>
<!-- BreakROIs -->
<g id="node55" class="node">
<title>BreakROIs</title>
<ellipse fill="none" stroke="black" cx="503" cy="-932" rx="50.09" ry="18"/>
<text text-anchor="middle" x="503" y="-928.3" font-family="Times,serif" font-size="14.00">BreakROIs</text>
</g>
<!-- dummy3&#45;&gt;BreakROIs -->
<!-- CheckROIs -->
<g id="node56" class="node">
<title>CheckROIs</title>
<ellipse fill="none" stroke="black" cx="503" cy="-859" rx="51.99" ry="18"/>
<text text-anchor="middle" x="503" y="-855.3" font-family="Times,serif" font-size="14.00">CheckROIs</text>
</g>
<!-- BreakROIs&#45;&gt;CheckROIs -->
<g id="edge62" class="edge">
<title>BreakROIs&#45;&gt;CheckROIs</title>
<path fill="none" stroke="black" d="M503,-913.81C503,-905.79 503,-896.05 503,-887.07"/>
<polygon fill="black" stroke="black" points="506.5,-887.03 503,-877.03 499.5,-887.03 506.5,-887.03"/>
</g>
<!-- CleanROIs -->
<g id="node57" class="node">
<title>CleanROIs</title>
<ellipse fill="none" stroke="black" cx="503" cy="-786" rx="50.09" ry="18"/>
<text text-anchor="middle" x="503" y="-782.3" font-family="Times,serif" font-size="14.00">CleanROIs</text>
</g>
<!-- CheckROIs&#45;&gt;CleanROIs -->
<g id="edge63" class="edge">
<title>CheckROIs&#45;&gt;CleanROIs</title>
<path fill="none" stroke="black" d="M503,-840.81C503,-832.79 503,-823.05 503,-814.07"/>
<polygon fill="black" stroke="black" points="506.5,-814.03 503,-804.03 499.5,-814.03 506.5,-814.03"/>
</g>
<!-- ShrinkROIs -->
<g id="node58" class="node">
<title>ShrinkROIs</title>
<ellipse fill="none" stroke="black" cx="503" cy="-713" rx="52.79" ry="18"/>
<text text-anchor="middle" x="503" y="-709.3" font-family="Times,serif" font-size="14.00">ShrinkROIs</text>
</g>
<!-- CleanROIs&#45;&gt;ShrinkROIs -->
<g id="edge64" class="edge">
<title>CleanROIs&#45;&gt;ShrinkROIs</title>
<path fill="none" stroke="black" d="M503,-760C503,-753.88 503,-747.29 503,-741.07"/>
<polygon fill="black" stroke="black" points="506.5,-741.03 503,-731.03 499.5,-741.03 506.5,-741.03"/>
</g>
<!-- BreakROIs2 -->
<g id="node59" class="node">
<title>BreakROIs2</title>
<ellipse fill="none" stroke="black" cx="503" cy="-640" rx="54.69" ry="18"/>
<text text-anchor="middle" x="503" y="-636.3" font-family="Times,serif" font-size="14.00">BreakROIs2</text>
</g>
<!-- ShrinkROIs&#45;&gt;BreakROIs2 -->
<g id="edge65" class="edge">
<title>ShrinkROIs&#45;&gt;BreakROIs2</title>
<path fill="none" stroke="black" d="M503,-694.81C503,-686.79 503,-677.05 503,-668.07"/>
<polygon fill="black" stroke="black" points="506.5,-668.03 503,-658.03 499.5,-668.03 506.5,-668.03"/>
</g>
<!-- CleanROIs2 -->
<g id="node60" class="node">
<title>CleanROIs2</title>
<ellipse fill="none" stroke="black" cx="503" cy="-567" rx="53.89" ry="18"/>
<text text-anchor="middle" x="503" y="-563.3" font-family="Times,serif" font-size="14.00">CleanROIs2</text>
</g>
<!-- BreakROIs2&#45;&gt;CleanROIs2 -->
<g id="edge66" class="edge">
<title>BreakROIs2&#45;&gt;CleanROIs2</title>
<path fill="none" stroke="black" d="M503,-621.81C503,-613.79 503,-604.05 503,-595.07"/>
<polygon fill="black" stroke="black" points="506.5,-595.03 503,-585.03 499.5,-595.03 506.5,-595.03"/>
</g>
<!-- IsInductionPlanePL3 -->
<g id="node61" class="node">
<title>IsInductionPlanePL3</title>
<polygon fill="none" stroke="black" points="503,-512 431.11,-494 503,-476 574.89,-494 503,-512"/>
<text text-anchor="middle" x="503" y="-490.3" font-family="Times,serif" font-size="14.00">IsInduction</text>
</g>
<!-- CleanROIs2&#45;&gt;IsInductionPlanePL3 -->
<g id="edge67" class="edge">
<title>CleanROIs2&#45;&gt;IsInductionPlanePL3</title>
<path fill="none" stroke="black" d="M503,-548.81C503,-540.79 503,-531.05 503,-522.07"/>
<polygon fill="black" stroke="black" points="506.5,-522.03 503,-512.03 499.5,-522.03 506.5,-522.03"/>
</g>
<!-- CleanUpCollectionROIs -->
<g id="node62" class="node">
<title>CleanUpCollectionROIs</title>
<ellipse fill="none" stroke="black" cx="420" cy="-407" rx="96.68" ry="18"/>
<text text-anchor="middle" x="420" y="-403.3" font-family="Times,serif" font-size="14.00">CleanUpCollectionROIs</text>
</g>
<!-- IsInductionPlanePL3&#45;&gt;CleanUpCollectionROIs -->
<g id="edge68" class="edge">
<title>IsInductionPlanePL3&#45;&gt;CleanUpCollectionROIs</title>
<path fill="none" stroke="black" d="M489.29,-478.96C476.98,-466.36 458.63,-447.56 443.91,-432.48"/>
<polygon fill="black" stroke="black" points="446.08,-429.7 436.59,-424.99 441.07,-434.59 446.08,-429.7"/>
<text text-anchor="middle" x="474" y="-446.8" font-family="Times,serif" font-size="14.00">no</text>
</g>
<!-- CleanUpInductionROIs -->
<g id="node63" class="node">
<title>CleanUpInductionROIs</title>
<ellipse fill="none" stroke="black" cx="629" cy="-407" rx="94.48" ry="18"/>
<text text-anchor="middle" x="629" y="-403.3" font-family="Times,serif" font-size="14.00">CleanUpInductionROIs</text>
</g>
<!-- IsInductionPlanePL3&#45;&gt;CleanUpInductionROIs -->
<g id="edge69" class="edge">
<title>IsInductionPlanePL3&#45;&gt;CleanUpInductionROIs</title>
<path fill="none" stroke="black" d="M521.59,-480.46C541.1,-467.3 572.17,-446.34 595.89,-430.34"/>
<polygon fill="black" stroke="black" points="597.92,-433.19 604.26,-424.69 594.01,-427.38 597.92,-433.19"/>
<text text-anchor="middle" x="583.5" y="-446.8" font-family="Times,serif" font-size="14.00">yes</text>
</g>
<!-- ExtendROIs -->
<g id="node64" class="node">
<title>ExtendROIs</title>
<ellipse fill="none" stroke="black" cx="524" cy="-334" rx="53.89" ry="18"/>
<text text-anchor="middle" x="524" y="-330.3" font-family="Times,serif" font-size="14.00">ExtendROIs</text>
</g>
<!-- CleanUpCollectionROIs&#45;&gt;ExtendROIs -->
<g id="edge70" class="edge">
<title>CleanUpCollectionROIs&#45;&gt;ExtendROIs</title>
<path fill="none" stroke="black" d="M444.12,-389.53C458.7,-379.58 477.44,-366.79 493.1,-356.1"/>
<polygon fill="black" stroke="black" points="495.15,-358.93 501.43,-350.41 491.2,-353.15 495.15,-358.93"/>
</g>
<!-- CleanUpInductionROIs&#45;&gt;ExtendROIs -->
<g id="edge71" class="edge">
<title>CleanUpInductionROIs&#45;&gt;ExtendROIs</title>
<path fill="none" stroke="black" d="M604.65,-389.53C589.93,-379.58 571.01,-366.79 555.2,-356.1"/>
<polygon fill="black" stroke="black" points="557.03,-353.11 546.78,-350.41 553.11,-358.91 557.03,-353.11"/>
</g>
<!-- decon_2D_hits -->
<g id="node65" class="node">
<title>decon_2D_hits</title>
<ellipse fill="none" stroke="black" cx="524" cy="-261" rx="63.89" ry="18"/>
<text text-anchor="middle" x="524" y="-257.3" font-family="Times,serif" font-size="14.00">decon_2D_hits</text>
</g>
<!-- ExtendROIs&#45;&gt;decon_2D_hits -->
<g id="edge72" class="edge">
<title>ExtendROIs&#45;&gt;decon_2D_hits</title>
<path fill="none" stroke="black" d="M524,-315.81C524,-307.79 524,-298.05 524,-289.07"/>
<polygon fill="black" stroke="black" points="527.5,-289.03 524,-279.03 520.5,-289.03 527.5,-289.03"/>
</g>
<!-- apply_roi -->
<g id="node66" class="node">
<title>apply_roi</title>
<ellipse fill="none" stroke="black" cx="524" cy="-188" rx="44.39" ry="18"/>
<text text-anchor="middle" x="524" y="-184.3" font-family="Times,serif" font-size="14.00">apply_roi</text>
</g>
<!-- decon_2D_hits&#45;&gt;apply_roi -->
<g id="edge73" class="edge">
<title>decon_2D_hits&#45;&gt;apply_roi</title>
<path fill="none" stroke="black" d="M524,-242.81C524,-234.79 524,-225.05 524,-216.07"/>
<polygon fill="black" stroke="black" points="527.5,-216.03 524,-206.03 520.5,-216.03 527.5,-216.03"/>
</g>
<!-- decon_2D_charge -->
<g id="node67" class="node">
<title>decon_2D_charge</title>
<ellipse fill="none" stroke="black" cx="524" cy="-115" rx="74.99" ry="18"/>
<text text-anchor="middle" x="524" y="-111.3" font-family="Times,serif" font-size="14.00">decon_2D_charge</text>
</g>
<!-- apply_roi&#45;&gt;decon_2D_charge -->
<g id="edge74" class="edge">
<title>apply_roi&#45;&gt;decon_2D_charge</title>
<path fill="none" stroke="black" d="M524,-169.81C524,-161.79 524,-152.05 524,-143.07"/>
<polygon fill="black" stroke="black" points="527.5,-143.03 524,-133.03 520.5,-143.03 527.5,-143.03"/>
</g>
<!-- apply_roi2 -->
<g id="node68" class="node">
<title>apply_roi2</title>
<ellipse fill="none" stroke="black" cx="524" cy="-42" rx="44.39" ry="18"/>
<text text-anchor="middle" x="524" y="-38.3" font-family="Times,serif" font-size="14.00">apply_roi</text>
</g>
<!-- decon_2D_charge&#45;&gt;apply_roi2 -->
<g id="edge75" class="edge">
<title>decon_2D_charge&#45;&gt;apply_roi2</title>
<path fill="none" stroke="black" d="M524,-96.81C524,-88.79 524,-79.05 524,-70.07"/>
<polygon fill="black" stroke="black" points="527.5,-70.03 524,-60.03 520.5,-70.03 527.5,-70.03"/>
</g>
<!-- WaveformsTPC -->
<g id="node69" class="node">
<title>WaveformsTPC</title>
<polygon fill="none" stroke="black" points="1303.5,-3596.8 1202.5,-3596.8 1198.5,-3592.8 1198.5,-3560.8 1299.5,-3560.8 1303.5,-3564.8 1303.5,-3596.8"/>
<polyline fill="none" stroke="black" points="1299.5,-3592.8 1198.5,-3592.8 "/>
<polyline fill="none" stroke="black" points="1299.5,-3592.8 1299.5,-3560.8 "/>
<polyline fill="none" stroke="black" points="1299.5,-3592.8 1303.5,-3596.8 "/>
<text text-anchor="middle" x="1251" y="-3575.1" font-family="Times,serif" font-size="14.00">WaveformsTPC</text>
</g>
<!-- WaveformsTPC&#45;&gt;MaskFunc -->
<g id="edge14" class="edge">
<title>WaveformsTPC&#45;&gt;MaskFunc</title>
<path fill="none" stroke="black" d="M1243.63,-3560.7C1234.73,-3540.04 1219.67,-3505.08 1209.3,-3481.02"/>
<polygon fill="black" stroke="black" points="1212.48,-3479.56 1205.31,-3471.76 1206.05,-3482.33 1212.48,-3479.56"/>
</g>
<!-- WaveformsTPC&#45;&gt;Add -->
<g id="edge21" class="edge">
<title>WaveformsTPC&#45;&gt;Add</title>
<path fill="none" stroke="black" d="M1269.6,-3560.5C1276.69,-3552.95 1284.2,-3543.59 1289,-3533.8 1304.78,-3501.64 1305,-3490.62 1305,-3454.8 1305,-3454.8 1305,-3454.8 1305,-3233.8 1305,-3157.69 674.18,-3161.64 579.76,-3162.65"/>
<polygon fill="black" stroke="black" points="579.58,-3159.16 569.62,-3162.78 579.66,-3166.16 579.58,-3159.16"/>
</g>
</g>
</svg>
