<?xml version="1.0" encoding="UTF-8" standalone="no"?>
<!DOCTYPE svg PUBLIC "-//W3C//DTD SVG 1.1//EN"
 "http://www.w3.org/Graphics/SVG/1.1/DTD/svg11.dtd">
<!-- Generated by graphviz version 2.43.0 (0)
 -->
<!-- Title: Overall Pages: 1 -->
<svg width="852pt" height="3572pt"
 viewBox="0.00 0.00 852.00 3572.40" xmlns="http://www.w3.org/2000/svg" xmlns:xlink="http://www.w3.org/1999/xlink">
<g id="graph0" class="graph" transform="scale(1 1) rotate(0) translate(4 3568.4)">
<title>Overall</title>
<polygon fill="white" stroke="transparent" points="-4,4 -4,-3568.4 848,-3568.4 848,4 -4,4"/>
<g id="clust1" class="cluster">
<title>clusterDoIt</title>
<polygon fill="none" stroke="black" points="8,-8 8,-3501.4 824,-3501.4 824,-8 8,-8"/>
<text text-anchor="middle" x="416" y="-3486.2" font-family="Times,serif" font-size="14.00">DoIt</text>
</g>
<g id="clust2" class="cluster">
<title>clusterInitResp</title>
<polygon fill="none" stroke="black" points="184,-3322.4 184,-3470.4 650,-3470.4 650,-3322.4 184,-3322.4"/>
<text text-anchor="middle" x="417" y="-3455.2" font-family="Times,serif" font-size="14.00">InitResp</text>
</g>
<g id="clust3" class="cluster">
<title>clusterPlaneLoop</title>
<polygon fill="none" stroke="black" points="20,-1436.2 20,-3303.4 706,-3303.4 706,-1436.2 20,-1436.2"/>
<text text-anchor="middle" x="363" y="-3288.2" font-family="Times,serif" font-size="14.00">LoopPlanes</text>
</g>
<g id="clust4" class="cluster">
<title>clusterLoadData</title>
<polygon fill="none" stroke="black" points="504,-3062.8 504,-3272.4 698,-3272.4 698,-3062.8 504,-3062.8"/>
<text text-anchor="middle" x="601" y="-3257.2" font-family="Times,serif" font-size="14.00">LoadDataPerPlane</text>
</g>
<g id="clust5" class="cluster">
<title>clusterDecon2DInit</title>
<polygon fill="none" stroke="black" points="28,-2311.8 28,-3137.8 496,-3137.8 496,-2311.8 28,-2311.8"/>
<text text-anchor="middle" x="262" y="-3122.6" font-family="Times,serif" font-size="14.00">decon_2D_init</text>
</g>
<g id="clust6" class="cluster">
<title>clusterChanLoop</title>
<polygon fill="none" stroke="black" points="241,-2895.8 241,-2970.8 357,-2970.8 357,-2895.8 241,-2895.8"/>
<text text-anchor="middle" x="299" y="-2955.6" font-family="Times,serif" font-size="14.00">channel loop</text>
</g>
<g id="clust7" class="cluster">
<title>clusterTightROIs</title>
<polygon fill="none" stroke="black" points="222,-1897.8 222,-2292.8 687,-2292.8 687,-1897.8 222,-1897.8"/>
<text text-anchor="middle" x="454.5" y="-2277.6" font-family="Times,serif" font-size="14.00">Find Tight ROIs</text>
</g>
<g id="clust8" class="cluster">
<title>clusterLooseROIs</title>
<polygon fill="none" stroke="black" points="316,-1570.8 316,-1878.8 514,-1878.8 514,-1570.8 316,-1570.8"/>
<text text-anchor="middle" x="415" y="-1863.6" font-family="Times,serif" font-size="14.00">Find Loose ROIs</text>
</g>
<g id="clust9" class="cluster">
<title>clusterLoadDataROIRefine</title>
<polygon fill="none" stroke="black" points="195,-1476.8 195,-1551.8 698,-1551.8 698,-1476.8 195,-1476.8"/>
<text text-anchor="middle" x="446.5" y="-1536.6" font-family="Times,serif" font-size="14.00">Load Data &#45;&#45; ROI Refine</text>
</g>
<g id="clust10" class="cluster">
<title>clusterPlaneLoop2</title>
<polygon fill="none" stroke="black" points="439,-1061.6 439,-1417.2 705,-1417.2 705,-1061.6 439,-1061.6"/>
<text text-anchor="middle" x="572" y="-1402" font-family="Times,serif" font-size="14.00">LoopPlanes</text>
</g>
<g id="clust11" class="cluster">
<title>clusterAnodeFaces</title>
<polygon fill="none" stroke="black" points="516,-1102.2 516,-1250.2 628,-1250.2 628,-1102.2 516,-1102.2"/>
<text text-anchor="middle" x="572" y="-1235" font-family="Times,serif" font-size="14.00">LoopAnodeFaces</text>
</g>
<g id="clust12" class="cluster">
<title>clusterPlaneLoop3</title>
<polygon fill="none" stroke="black" points="348,-16 348,-1042.6 764,-1042.6 764,-16 348,-16"/>
<text text-anchor="middle" x="556" y="-1027.4" font-family="Times,serif" font-size="14.00">LoopPlanes</text>
</g>
<g id="clust13" class="cluster">
<title>clusterBreakROIsLoop</title>
<polygon fill="none" stroke="black" points="512,-760 512,-981 632,-981 632,-760 512,-760"/>
<text text-anchor="middle" x="572" y="-965.8" font-family="Times,serif" font-size="14.00">BreakROIsLoop</text>
</g>
<!-- MaskFunc -->
<g id="node1" class="node">
<title>MaskFunc</title>
<ellipse fill="none" stroke="black" cx="737" cy="-3421.4" rx="79.09" ry="18"/>
<text text-anchor="middle" x="737" y="-3417.7" font-family="Times,serif" font-size="14.00">Load Masks:Chans</text>
</g>
<!-- Masks -->
<g id="node2" class="node">
<title>Masks</title>
<polygon fill="none" stroke="black" points="775,-3366.4 721,-3366.4 721,-3330.4 775,-3330.4 775,-3366.4"/>
<text text-anchor="middle" x="748" y="-3344.7" font-family="Times,serif" font-size="14.00">Masks</text>
</g>
<!-- MaskFunc&#45;&gt;Masks -->
<g id="edge9" class="edge">
<title>MaskFunc&#45;&gt;Masks</title>
<path fill="none" stroke="black" d="M739.66,-3403.21C740.91,-3395.19 742.42,-3385.45 743.81,-3376.47"/>
<polygon fill="black" stroke="black" points="747.29,-3376.85 745.36,-3366.43 740.37,-3375.78 747.29,-3376.85"/>
</g>
<!-- ROIForms -->
<g id="node3" class="node">
<title>ROIForms</title>
<polygon fill="none" stroke="black" points="788.5,-2174.8 713.5,-2174.8 713.5,-2138.8 788.5,-2138.8 788.5,-2174.8"/>
<text text-anchor="middle" x="751" y="-2153.1" font-family="Times,serif" font-size="14.00">ROIForms</text>
</g>
<!-- Masks&#45;&gt;ROIForms -->
<g id="edge10" class="edge">
<title>Masks&#45;&gt;ROIForms</title>
<path fill="none" stroke="black" d="M775.22,-3332.83C786.27,-3325.49 798.05,-3315.55 805,-3303.4 822.57,-3272.68 815,-3259.79 815,-3224.4 815,-3224.4 815,-3224.4 815,-2242.8 815,-2218.83 798.56,-2197.32 782.34,-2181.94"/>
<polygon fill="black" stroke="black" points="784.25,-2178.95 774.47,-2174.89 779.58,-2184.17 784.25,-2178.95"/>
</g>
<!-- ROIRefines -->
<g id="node4" class="node">
<title>ROIRefines</title>
<polygon fill="none" stroke="black" points="795.5,-3241.4 714.5,-3241.4 714.5,-3205.4 795.5,-3205.4 795.5,-3241.4"/>
<text text-anchor="middle" x="755" y="-3219.7" font-family="Times,serif" font-size="14.00">ROIRefines</text>
</g>
<!-- Masks&#45;&gt;ROIRefines -->
<g id="edge11" class="edge">
<title>Masks&#45;&gt;ROIRefines</title>
<path fill="none" stroke="black" d="M748.97,-3330.3C750.13,-3310.03 752.06,-3276 753.43,-3251.99"/>
<polygon fill="black" stroke="black" points="756.94,-3251.94 754.01,-3241.75 749.95,-3251.54 756.94,-3251.94"/>
</g>
<!-- MaskChans -->
<g id="node12" class="node">
<title>MaskChans</title>
<ellipse fill="none" stroke="black" cx="637" cy="-3223.4" rx="52.79" ry="18"/>
<text text-anchor="middle" x="637" y="-3219.7" font-family="Times,serif" font-size="14.00">MaskChans</text>
</g>
<!-- Masks&#45;&gt;MaskChans -->
<g id="edge12" class="edge">
<title>Masks&#45;&gt;MaskChans</title>
<path fill="none" stroke="black" d="M724.25,-3330.23C714.38,-3322.56 703.13,-3313.08 694,-3303.4 678.34,-3286.79 663.34,-3265.73 652.67,-3249.53"/>
<polygon fill="black" stroke="black" points="655.58,-3247.58 647.2,-3241.09 649.7,-3251.39 655.58,-3247.58"/>
</g>
<!-- find_roi_by_decon_itself -->
<g id="node36" class="node">
<title>find_roi_by_decon_itself</title>
<ellipse fill="none" stroke="red" cx="580" cy="-2069.8" rx="99.38" ry="18"/>
<text text-anchor="middle" x="580" y="-2066.1" font-family="Times,serif" font-size="14.00">find_roi_by_decon_itself</text>
</g>
<!-- ROIForms&#45;&gt;find_roi_by_decon_itself -->
<g id="edge47" class="edge">
<title>ROIForms&#45;&gt;find_roi_by_decon_itself</title>
<path fill="none" stroke="black" d="M716.4,-2138.6C689.01,-2124.99 650.67,-2105.93 621.61,-2091.48"/>
<polygon fill="black" stroke="black" points="623.04,-2088.28 612.53,-2086.97 619.92,-2094.55 623.04,-2088.28"/>
</g>
<!-- find_roi_by_decon_itself_ind -->
<g id="node37" class="node">
<title>find_roi_by_decon_itself_ind</title>
<ellipse fill="none" stroke="red" cx="416" cy="-1923.8" rx="99.38" ry="18"/>
<text text-anchor="middle" x="416" y="-1920.1" font-family="Times,serif" font-size="14.00">find_roi_by_decon_itself</text>
</g>
<!-- ROIForms&#45;&gt;find_roi_by_decon_itself_ind -->
<g id="edge46" class="edge">
<title>ROIForms&#45;&gt;find_roi_by_decon_itself_ind</title>
<path fill="none" stroke="black" d="M744.33,-2138.56C734.84,-2116.01 715.49,-2076.48 688,-2051.8 626.74,-1996.81 537.52,-1961.33 478.17,-1942.22"/>
<polygon fill="black" stroke="black" points="479.14,-1938.85 468.55,-1939.18 477.03,-1945.53 479.14,-1938.85"/>
</g>
<!-- find_roi_loose -->
<g id="node40" class="node">
<title>find_roi_loose</title>
<ellipse fill="none" stroke="red" cx="416" cy="-1669.8" rx="61.99" ry="18"/>
<text text-anchor="middle" x="416" y="-1666.1" font-family="Times,serif" font-size="14.00">find_roi_loose</text>
</g>
<!-- ROIForms&#45;&gt;find_roi_loose -->
<g id="edge45" class="edge">
<title>ROIForms&#45;&gt;find_roi_loose</title>
<path fill="none" stroke="black" d="M750.03,-2138.55C749.16,-2121.38 748,-2094.28 748,-2070.8 748,-2070.8 748,-2070.8 748,-1741.8 748,-1689 585.39,-1675.33 487.78,-1671.88"/>
<polygon fill="black" stroke="black" points="487.78,-1668.38 477.67,-1671.55 487.55,-1675.37 487.78,-1668.38"/>
</g>
<!-- FieldResp -->
<g id="node5" class="node">
<title>FieldResp</title>
<polygon fill="none" stroke="black" points="369.5,-3366.4 298.5,-3366.4 298.5,-3330.4 369.5,-3330.4 369.5,-3366.4"/>
<text text-anchor="middle" x="334" y="-3344.7" font-family="Times,serif" font-size="14.00">FieldResp</text>
</g>
<!-- FFT_FR_time_domain -->
<g id="node22" class="node">
<title>FFT_FR_time_domain</title>
<ellipse fill="none" stroke="black" cx="134" cy="-2921.8" rx="92.88" ry="18"/>
<text text-anchor="middle" x="134" y="-2918.1" font-family="Times,serif" font-size="14.00">FFT_FR_time_domain</text>
</g>
<!-- FieldResp&#45;&gt;FFT_FR_time_domain -->
<g id="edge23" class="edge">
<title>FieldResp&#45;&gt;FFT_FR_time_domain</title>
<path fill="none" stroke="black" d="M304.82,-3330.3C299.62,-3327.51 294.21,-3324.77 289,-3322.4 172.01,-3269.25 17,-3352.9 17,-3224.4 17,-3224.4 17,-3224.4 17,-3014.8 17,-2980.14 49.12,-2956.55 79.7,-2941.94"/>
<polygon fill="black" stroke="black" points="81.43,-2944.99 89.1,-2937.69 78.55,-2938.61 81.43,-2944.99"/>
</g>
<!-- WireShift -->
<g id="node6" class="node">
<title>WireShift</title>
<polygon fill="none" stroke="black" points="642,-3366.4 572,-3366.4 572,-3330.4 642,-3330.4 642,-3366.4"/>
<text text-anchor="middle" x="607" y="-3344.7" font-family="Times,serif" font-size="14.00">WireShift</text>
</g>
<!-- WirePadding -->
<g id="node7" class="node">
<title>WirePadding</title>
<polygon fill="none" stroke="black" points="280,-3366.4 192,-3366.4 192,-3330.4 280,-3330.4 280,-3366.4"/>
<text text-anchor="middle" x="236" y="-3344.7" font-family="Times,serif" font-size="14.00">WirePadding</text>
</g>
<!-- nFFTticks -->
<g id="node8" class="node">
<title>nFFTticks</title>
<polygon fill="none" stroke="black" points="460,-3366.4 388,-3366.4 388,-3330.4 460,-3330.4 460,-3366.4"/>
<text text-anchor="middle" x="424" y="-3344.7" font-family="Times,serif" font-size="14.00">nFFTticks</text>
</g>
<!-- a -->
<!-- nFFTticks&#45;&gt;a -->
<g id="edge14" class="edge">
<title>nFFTticks&#45;&gt;a</title>
<path fill="none" stroke="black" d="M439.99,-3330.3C454.73,-3314.53 477.26,-3290.43 497.11,-3269.2"/>
<polygon fill="black" stroke="black" points="499.73,-3271.53 504,-3261.83 494.62,-3266.75 499.73,-3271.53"/>
</g>
<!-- nFFTwires -->
<g id="node9" class="node">
<title>nFFTwires</title>
<polygon fill="none" stroke="black" points="554,-3366.4 478,-3366.4 478,-3330.4 554,-3330.4 554,-3366.4"/>
<text text-anchor="middle" x="516" y="-3344.7" font-family="Times,serif" font-size="14.00">nFFTwires</text>
</g>
<!-- nFFTwires&#45;&gt;a -->
<g id="edge13" class="edge">
<title>nFFTwires&#45;&gt;a</title>
<path fill="none" stroke="black" d="M519.2,-3330.3C521.54,-3317.78 524.86,-3300 528.12,-3282.57"/>
<polygon fill="black" stroke="black" points="531.63,-3282.87 530.02,-3272.4 524.75,-3281.59 531.63,-3282.87"/>
</g>
<!-- LoadFieldResp -->
<g id="node10" class="node">
<title>LoadFieldResp</title>
<ellipse fill="none" stroke="black" cx="424" cy="-3421.4" rx="64.19" ry="18"/>
<text text-anchor="middle" x="424" y="-3417.7" font-family="Times,serif" font-size="14.00">LoadFieldResp</text>
</g>
<!-- LoadFieldResp&#45;&gt;FieldResp -->
<g id="edge1" class="edge">
<title>LoadFieldResp&#45;&gt;FieldResp</title>
<path fill="none" stroke="black" d="M403.58,-3404.29C391.72,-3394.94 376.59,-3383 363.46,-3372.64"/>
<polygon fill="black" stroke="black" points="365.62,-3369.88 355.6,-3366.44 361.28,-3375.38 365.62,-3369.88"/>
</g>
<!-- LoadFieldResp&#45;&gt;WireShift -->
<g id="edge2" class="edge">
<title>LoadFieldResp&#45;&gt;WireShift</title>
<path fill="none" stroke="black" d="M460.15,-3406.37C489.51,-3394.98 531.05,-3378.87 562.46,-3366.68"/>
<polygon fill="black" stroke="black" points="563.8,-3369.92 571.85,-3363.04 561.26,-3363.39 563.8,-3369.92"/>
</g>
<!-- LoadFieldResp&#45;&gt;WirePadding -->
<g id="edge3" class="edge">
<title>LoadFieldResp&#45;&gt;WirePadding</title>
<path fill="none" stroke="black" d="M387.31,-3406.54C359.51,-3396.05 320.91,-3381.47 289.65,-3369.66"/>
<polygon fill="black" stroke="black" points="290.8,-3366.36 280.21,-3366.1 288.33,-3372.9 290.8,-3366.36"/>
</g>
<!-- LoadFieldResp&#45;&gt;nFFTticks -->
<g id="edge4" class="edge">
<title>LoadFieldResp&#45;&gt;nFFTticks</title>
<path fill="none" stroke="black" d="M424,-3403.21C424,-3395.19 424,-3385.45 424,-3376.47"/>
<polygon fill="black" stroke="black" points="427.5,-3376.43 424,-3366.43 420.5,-3376.43 427.5,-3376.43"/>
</g>
<!-- LoadFieldResp&#45;&gt;nFFTwires -->
<g id="edge5" class="edge">
<title>LoadFieldResp&#45;&gt;nFFTwires</title>
<path fill="none" stroke="black" d="M444.88,-3404.29C456.99,-3394.94 472.47,-3383 485.88,-3372.64"/>
<polygon fill="black" stroke="black" points="488.15,-3375.32 493.92,-3366.44 483.87,-3369.78 488.15,-3375.32"/>
</g>
<!-- Add -->
<g id="node13" class="node">
<title>Add</title>
<ellipse fill="black" stroke="black" cx="637" cy="-3166.6" rx="1.8" ry="1.8"/>
</g>
<!-- MaskChans&#45;&gt;Add -->
<g id="edge16" class="edge">
<title>MaskChans&#45;&gt;Add</title>
<path fill="none" stroke="black" d="M637,-3205.36C637,-3196.67 637,-3186.36 637,-3178.7"/>
<polygon fill="black" stroke="black" points="640.5,-3178.56 637,-3168.56 633.5,-3178.56 640.5,-3178.56"/>
</g>
<!-- RebaseWFs -->
<g id="node14" class="node">
<title>RebaseWFs</title>
<ellipse fill="none" stroke="red" cx="601" cy="-3088.8" rx="53.09" ry="18"/>
<text text-anchor="middle" x="601" y="-3085.1" font-family="Times,serif" font-size="14.00">RebaseWFs</text>
</g>
<!-- Add&#45;&gt;RebaseWFs -->
<g id="edge17" class="edge">
<title>Add&#45;&gt;RebaseWFs</title>
<path fill="none" stroke="black" d="M636.21,-3164.63C634.05,-3161.94 627.92,-3154.07 624,-3146.8 618.82,-3137.18 614.1,-3126.13 610.3,-3116.34"/>
<polygon fill="black" stroke="black" points="613.48,-3114.85 606.7,-3106.7 606.92,-3117.3 613.48,-3114.85"/>
</g>
<!-- FFT_time -->
<g id="node15" class="node">
<title>FFT_time</title>
<ellipse fill="none" stroke="black" cx="442" cy="-3015.8" rx="46.29" ry="18"/>
<text text-anchor="middle" x="442" y="-3012.1" font-family="Times,serif" font-size="14.00">FFT_time</text>
</g>
<!-- RebaseWFs&#45;&gt;FFT_time -->
<g id="edge18" class="edge">
<title>RebaseWFs&#45;&gt;FFT_time</title>
<path fill="none" stroke="black" d="M569.97,-3073.94C544.34,-3062.5 507.85,-3046.2 480.38,-3033.94"/>
<polygon fill="black" stroke="black" points="481.64,-3030.67 471.08,-3029.79 478.78,-3037.06 481.64,-3030.67"/>
</g>
<!-- ApplyResp -->
<g id="node30" class="node">
<title>ApplyResp</title>
<ellipse fill="none" stroke="black" cx="299" cy="-2921.8" rx="50.09" ry="18"/>
<text text-anchor="middle" x="299" y="-2918.1" font-family="Times,serif" font-size="14.00">ApplyResp</text>
</g>
<!-- FFT_time&#45;&gt;ApplyResp -->
<g id="edge21" class="edge">
<title>FFT_time&#45;&gt;ApplyResp</title>
<path fill="none" stroke="black" d="M411.64,-3002.23C393.9,-2994.3 371.44,-2983.22 353,-2970.8 342.38,-2963.64 331.64,-2954.56 322.57,-2946.23"/>
<polygon fill="black" stroke="black" points="324.75,-2943.47 315.07,-2939.16 319.95,-2948.57 324.75,-2943.47"/>
</g>
<!-- ElecResp -->
<g id="node16" class="node">
<title>ElecResp</title>
<polygon fill="none" stroke="black" points="333,-3106.8 265,-3106.8 265,-3070.8 333,-3070.8 333,-3106.8"/>
<text text-anchor="middle" x="299" y="-3085.1" font-family="Times,serif" font-size="14.00">ElecResp</text>
</g>
<!-- ElecRespFFT_time -->
<g id="node18" class="node">
<title>ElecRespFFT_time</title>
<ellipse fill="none" stroke="black" cx="299" cy="-3015.8" rx="79.09" ry="18"/>
<text text-anchor="middle" x="299" y="-3012.1" font-family="Times,serif" font-size="14.00">ElecRespFFT_time</text>
</g>
<!-- ElecResp&#45;&gt;ElecRespFFT_time -->
<g id="edge6" class="edge">
<title>ElecResp&#45;&gt;ElecRespFFT_time</title>
<path fill="none" stroke="black" d="M299,-3070.61C299,-3062.59 299,-3052.85 299,-3043.87"/>
<polygon fill="black" stroke="black" points="302.5,-3043.83 299,-3033.83 295.5,-3043.83 302.5,-3043.83"/>
</g>
<!-- ChanResp -->
<g id="node17" class="node">
<title>ChanResp</title>
<polygon fill="none" stroke="black" points="155,-3106.8 83,-3106.8 83,-3070.8 155,-3070.8 155,-3106.8"/>
<text text-anchor="middle" x="119" y="-3085.1" font-family="Times,serif" font-size="14.00">ChanResp</text>
</g>
<!-- ChanRespFFT_time -->
<g id="node19" class="node">
<title>ChanRespFFT_time</title>
<ellipse fill="none" stroke="black" cx="119" cy="-3015.8" rx="82.59" ry="18"/>
<text text-anchor="middle" x="119" y="-3012.1" font-family="Times,serif" font-size="14.00">ChanRespFFT_time</text>
</g>
<!-- ChanResp&#45;&gt;ChanRespFFT_time -->
<g id="edge7" class="edge">
<title>ChanResp&#45;&gt;ChanRespFFT_time</title>
<path fill="none" stroke="black" d="M119,-3070.61C119,-3062.59 119,-3052.85 119,-3043.87"/>
<polygon fill="black" stroke="black" points="122.5,-3043.83 119,-3033.83 115.5,-3043.83 122.5,-3043.83"/>
</g>
<!-- ElecRespFFT_time&#45;&gt;ApplyResp -->
<g id="edge19" class="edge">
<title>ElecRespFFT_time&#45;&gt;ApplyResp</title>
<path fill="none" stroke="black" d="M299,-2997.5C299,-2984.26 299,-2965.75 299,-2950.46"/>
<polygon fill="black" stroke="black" points="302.5,-2950.03 299,-2940.03 295.5,-2950.03 302.5,-2950.03"/>
</g>
<!-- ChanRespFFT_time&#45;&gt;ApplyResp -->
<g id="edge20" class="edge">
<title>ChanRespFFT_time&#45;&gt;ApplyResp</title>
<path fill="none" stroke="black" d="M170.66,-3001.75C194.27,-2994.55 222.03,-2984.3 245,-2970.8 256.32,-2964.15 267.41,-2954.91 276.57,-2946.31"/>
<polygon fill="black" stroke="black" points="279.04,-2948.79 283.77,-2939.31 274.16,-2943.77 279.04,-2948.79"/>
</g>
<!-- FFT_wire -->
<g id="node20" class="node">
<title>FFT_wire</title>
<ellipse fill="none" stroke="black" cx="299" cy="-2848.8" rx="46.29" ry="18"/>
<text text-anchor="middle" x="299" y="-2845.1" font-family="Times,serif" font-size="14.00">FFT_wire</text>
</g>
<!-- ApplyFieldResp -->
<g id="node23" class="node">
<title>ApplyFieldResp</title>
<ellipse fill="none" stroke="black" cx="299" cy="-2775.8" rx="68.49" ry="18"/>
<text text-anchor="middle" x="299" y="-2772.1" font-family="Times,serif" font-size="14.00">ApplyFieldResp</text>
</g>
<!-- FFT_wire&#45;&gt;ApplyFieldResp -->
<g id="edge26" class="edge">
<title>FFT_wire&#45;&gt;ApplyFieldResp</title>
<path fill="none" stroke="black" d="M299,-2830.61C299,-2822.59 299,-2812.85 299,-2803.87"/>
<polygon fill="black" stroke="black" points="302.5,-2803.83 299,-2793.83 295.5,-2803.83 302.5,-2803.83"/>
</g>
<!-- FFT_FR_wire_domain -->
<g id="node21" class="node">
<title>FFT_FR_wire_domain</title>
<ellipse fill="none" stroke="black" cx="139" cy="-2848.8" rx="92.08" ry="18"/>
<text text-anchor="middle" x="139" y="-2845.1" font-family="Times,serif" font-size="14.00">FFT_FR_wire_domain</text>
</g>
<!-- FFT_FR_wire_domain&#45;&gt;ApplyFieldResp -->
<g id="edge25" class="edge">
<title>FFT_FR_wire_domain&#45;&gt;ApplyFieldResp</title>
<path fill="none" stroke="black" d="M174.51,-2832.04C198.67,-2821.32 230.78,-2807.07 256.33,-2795.73"/>
<polygon fill="black" stroke="black" points="258.05,-2798.8 265.78,-2791.54 255.21,-2792.4 258.05,-2798.8"/>
</g>
<!-- FFT_FR_time_domain&#45;&gt;FFT_FR_wire_domain -->
<g id="edge24" class="edge">
<title>FFT_FR_time_domain&#45;&gt;FFT_FR_wire_domain</title>
<path fill="none" stroke="black" d="M135.21,-2903.61C135.78,-2895.59 136.46,-2885.85 137.09,-2876.87"/>
<polygon fill="black" stroke="black" points="140.59,-2877.05 137.8,-2866.83 133.61,-2876.56 140.59,-2877.05"/>
</g>
<!-- ApplyHfFilter -->
<g id="node24" class="node">
<title>ApplyHfFilter</title>
<ellipse fill="none" stroke="black" cx="310" cy="-2702.8" rx="61.19" ry="18"/>
<text text-anchor="middle" x="310" y="-2699.1" font-family="Times,serif" font-size="14.00">ApplyHfFilter</text>
</g>
<!-- ApplyFieldResp&#45;&gt;ApplyHfFilter -->
<g id="edge27" class="edge">
<title>ApplyFieldResp&#45;&gt;ApplyHfFilter</title>
<path fill="none" stroke="black" d="M301.28,-2757.57C302.1,-2751.62 303.05,-2744.91 304,-2738.8 304.4,-2736.24 304.83,-2733.58 305.26,-2730.92"/>
<polygon fill="black" stroke="black" points="308.75,-2731.32 306.96,-2720.87 301.84,-2730.15 308.75,-2731.32"/>
</g>
<!-- Inv_FFT_wire -->
<g id="node25" class="node">
<title>Inv_FFT_wire</title>
<ellipse fill="none" stroke="black" cx="315" cy="-2629.8" rx="61.99" ry="18"/>
<text text-anchor="middle" x="315" y="-2626.1" font-family="Times,serif" font-size="14.00">Inv_FFT_wire</text>
</g>
<!-- ApplyHfFilter&#45;&gt;Inv_FFT_wire -->
<g id="edge28" class="edge">
<title>ApplyHfFilter&#45;&gt;Inv_FFT_wire</title>
<path fill="none" stroke="black" d="M311.21,-2684.61C311.78,-2676.59 312.46,-2666.85 313.09,-2657.87"/>
<polygon fill="black" stroke="black" points="316.59,-2658.05 313.8,-2647.83 309.61,-2657.56 316.59,-2658.05"/>
</g>
<!-- Inv_FFT_time -->
<g id="node26" class="node">
<title>Inv_FFT_time</title>
<ellipse fill="none" stroke="black" cx="319" cy="-2556.8" rx="62.29" ry="18"/>
<text text-anchor="middle" x="319" y="-2553.1" font-family="Times,serif" font-size="14.00">Inv_FFT_time</text>
</g>
<!-- Inv_FFT_wire&#45;&gt;Inv_FFT_time -->
<g id="edge29" class="edge">
<title>Inv_FFT_wire&#45;&gt;Inv_FFT_time</title>
<path fill="none" stroke="black" d="M315.97,-2611.61C316.42,-2603.59 316.97,-2593.85 317.47,-2584.87"/>
<polygon fill="black" stroke="black" points="320.97,-2585.01 318.04,-2574.83 313.98,-2584.62 320.97,-2585.01"/>
</g>
<!-- ShiftWire -->
<g id="node27" class="node">
<title>ShiftWire</title>
<ellipse fill="none" stroke="black" cx="322" cy="-2483.8" rx="45.49" ry="18"/>
<text text-anchor="middle" x="322" y="-2480.1" font-family="Times,serif" font-size="14.00">ShiftWire</text>
</g>
<!-- Inv_FFT_time&#45;&gt;ShiftWire -->
<g id="edge30" class="edge">
<title>Inv_FFT_time&#45;&gt;ShiftWire</title>
<path fill="none" stroke="black" d="M319.73,-2538.61C320.07,-2530.59 320.48,-2520.85 320.86,-2511.87"/>
<polygon fill="black" stroke="black" points="324.36,-2511.97 321.28,-2501.83 317.36,-2511.67 324.36,-2511.97"/>
</g>
<!-- ShiftTime -->
<g id="node28" class="node">
<title>ShiftTime</title>
<ellipse fill="none" stroke="black" cx="326" cy="-2410.8" rx="46.59" ry="18"/>
<text text-anchor="middle" x="326" y="-2407.1" font-family="Times,serif" font-size="14.00">ShiftTime</text>
</g>
<!-- ShiftWire&#45;&gt;ShiftTime -->
<g id="edge31" class="edge">
<title>ShiftWire&#45;&gt;ShiftTime</title>
<path fill="none" stroke="black" d="M322.97,-2465.61C323.42,-2457.59 323.97,-2447.85 324.47,-2438.87"/>
<polygon fill="black" stroke="black" points="327.97,-2439.01 325.04,-2428.83 320.98,-2438.62 327.97,-2439.01"/>
</g>
<!-- FFT_time_2 -->
<g id="node29" class="node">
<title>FFT_time_2</title>
<ellipse fill="none" stroke="black" cx="333" cy="-2337.8" rx="55.49" ry="18"/>
<text text-anchor="middle" x="333" y="-2334.1" font-family="Times,serif" font-size="14.00">FFT_time_2</text>
</g>
<!-- ShiftTime&#45;&gt;FFT_time_2 -->
<g id="edge32" class="edge">
<title>ShiftTime&#45;&gt;FFT_time_2</title>
<path fill="none" stroke="black" d="M327.69,-2392.61C328.49,-2384.59 329.45,-2374.85 330.33,-2365.87"/>
<polygon fill="black" stroke="black" points="333.82,-2366.12 331.32,-2355.83 326.86,-2365.44 333.82,-2366.12"/>
</g>
<!-- IsInductionPlane -->
<g id="node31" class="node">
<title>IsInductionPlane</title>
<polygon fill="none" stroke="black" points="351,-2261.8 251.96,-2243.8 351,-2225.8 450.04,-2243.8 351,-2261.8"/>
<text text-anchor="middle" x="351" y="-2240.1" font-family="Times,serif" font-size="14.00">IsInductionPlane</text>
</g>
<!-- FFT_time_2&#45;&gt;IsInductionPlane -->
<g id="edge33" class="edge">
<title>FFT_time_2&#45;&gt;IsInductionPlane</title>
<path fill="none" stroke="black" d="M336.39,-2319.5C339.03,-2305.96 342.76,-2286.91 345.79,-2271.44"/>
<polygon fill="black" stroke="black" points="349.27,-2271.89 347.75,-2261.41 342.4,-2270.55 349.27,-2271.89"/>
</g>
<!-- ApplyResp&#45;&gt;FFT_wire -->
<g id="edge22" class="edge">
<title>ApplyResp&#45;&gt;FFT_wire</title>
<path fill="none" stroke="black" d="M299,-2895.8C299,-2889.68 299,-2883.09 299,-2876.87"/>
<polygon fill="black" stroke="black" points="302.5,-2876.83 299,-2866.83 295.5,-2876.83 302.5,-2876.83"/>
</g>
<!-- UseROIRefine -->
<g id="node32" class="node">
<title>UseROIRefine</title>
<polygon fill="none" stroke="black" points="351,-2174.8 261.68,-2156.8 351,-2138.8 440.32,-2156.8 351,-2174.8"/>
<text text-anchor="middle" x="351" y="-2153.1" font-family="Times,serif" font-size="14.00">UseROIRefine</text>
</g>
<!-- IsInductionPlane&#45;&gt;UseROIRefine -->
<g id="edge36" class="edge">
<title>IsInductionPlane&#45;&gt;UseROIRefine</title>
<path fill="none" stroke="black" d="M351,-2225.6C351,-2213.96 351,-2198.35 351,-2185.04"/>
<polygon fill="black" stroke="black" points="354.5,-2184.98 351,-2174.98 347.5,-2184.98 354.5,-2184.98"/>
<text text-anchor="middle" x="360.5" y="-2196.6" font-family="Times,serif" font-size="14.00">yes</text>
</g>
<!-- decon_2D_tightROI_coll -->
<g id="node35" class="node">
<title>decon_2D_tightROI_coll</title>
<ellipse fill="none" stroke="red" cx="560" cy="-2156.8" rx="82.59" ry="18"/>
<text text-anchor="middle" x="560" y="-2153.1" font-family="Times,serif" font-size="14.00">decon_2D_tightROI</text>
</g>
<!-- IsInductionPlane&#45;&gt;decon_2D_tightROI_coll -->
<g id="edge34" class="edge">
<title>IsInductionPlane&#45;&gt;decon_2D_tightROI_coll</title>
<path fill="none" stroke="black" d="M380.06,-2230.98C414.53,-2216.96 472.46,-2193.4 513.26,-2176.81"/>
<polygon fill="black" stroke="black" points="514.78,-2179.97 522.73,-2172.96 512.14,-2173.48 514.78,-2179.97"/>
<text text-anchor="middle" x="476" y="-2196.6" font-family="Times,serif" font-size="14.00">no</text>
</g>
<!-- decon_2D_tighterROI -->
<g id="node33" class="node">
<title>decon_2D_tighterROI</title>
<ellipse fill="none" stroke="red" cx="374" cy="-2069.8" rx="89.08" ry="18"/>
<text text-anchor="middle" x="374" y="-2066.1" font-family="Times,serif" font-size="14.00">decon_2D_tighterROI</text>
</g>
<!-- UseROIRefine&#45;&gt;decon_2D_tighterROI -->
<g id="edge37" class="edge">
<title>UseROIRefine&#45;&gt;decon_2D_tighterROI</title>
<path fill="none" stroke="black" d="M355.43,-2139.41C358.62,-2127.65 362.98,-2111.53 366.68,-2097.87"/>
<polygon fill="black" stroke="black" points="370.11,-2098.58 369.34,-2088.01 363.35,-2096.75 370.11,-2098.58"/>
<text text-anchor="middle" x="373.5" y="-2109.6" font-family="Times,serif" font-size="14.00">yes</text>
</g>
<!-- decon_2D_tightROI_ind -->
<g id="node34" class="node">
<title>decon_2D_tightROI_ind</title>
<ellipse fill="none" stroke="red" cx="374" cy="-1996.8" rx="82.59" ry="18"/>
<text text-anchor="middle" x="374" y="-1993.1" font-family="Times,serif" font-size="14.00">decon_2D_tightROI</text>
</g>
<!-- UseROIRefine&#45;&gt;decon_2D_tightROI_ind -->
<g id="edge39" class="edge">
<title>UseROIRefine&#45;&gt;decon_2D_tightROI_ind</title>
<path fill="none" stroke="black" d="M325.41,-2143.81C290.08,-2125.53 233.26,-2088.91 257,-2051.8 268.61,-2033.66 288.03,-2021.53 307.74,-2013.45"/>
<polygon fill="black" stroke="black" points="308.99,-2016.72 317.1,-2009.91 306.51,-2010.17 308.99,-2016.72"/>
<text text-anchor="middle" x="266.5" y="-2066.1" font-family="Times,serif" font-size="14.00">yes</text>
</g>
<!-- decon_2D_tighterROI&#45;&gt;decon_2D_tightROI_ind -->
<g id="edge38" class="edge">
<title>decon_2D_tighterROI&#45;&gt;decon_2D_tightROI_ind</title>
<path fill="none" stroke="black" d="M374,-2051.61C374,-2043.59 374,-2033.85 374,-2024.87"/>
<polygon fill="black" stroke="black" points="377.5,-2024.83 374,-2014.83 370.5,-2024.83 377.5,-2024.83"/>
</g>
<!-- decon_2D_tightROI_ind&#45;&gt;find_roi_by_decon_itself_ind -->
<g id="edge40" class="edge">
<title>decon_2D_tightROI_ind&#45;&gt;find_roi_by_decon_itself_ind</title>
<path fill="none" stroke="black" d="M384.17,-1978.61C389.12,-1970.24 395.18,-1960 400.68,-1950.7"/>
<polygon fill="black" stroke="black" points="403.85,-1952.22 405.93,-1941.83 397.82,-1948.65 403.85,-1952.22"/>
</g>
<!-- decon_2D_tightROI_coll&#45;&gt;find_roi_by_decon_itself -->
<g id="edge35" class="edge">
<title>decon_2D_tightROI_coll&#45;&gt;find_roi_by_decon_itself</title>
<path fill="none" stroke="black" d="M564.05,-2138.6C566.79,-2126.96 570.46,-2111.35 573.59,-2098.04"/>
<polygon fill="black" stroke="black" points="577.08,-2098.51 575.96,-2087.98 570.26,-2096.91 577.08,-2098.51"/>
</g>
<!-- ROIRefine_do_load_data_coll -->
<g id="node43" class="node">
<title>ROIRefine_do_load_data_coll</title>
<ellipse fill="none" stroke="red" cx="572" cy="-1502.8" rx="118.08" ry="18"/>
<text text-anchor="middle" x="572" y="-1499.1" font-family="Times,serif" font-size="14.00">ROIRefine_do_load_data_coll</text>
</g>
<!-- find_roi_by_decon_itself&#45;&gt;ROIRefine_do_load_data_coll -->
<g id="edge49" class="edge">
<title>find_roi_by_decon_itself&#45;&gt;ROIRefine_do_load_data_coll</title>
<path fill="none" stroke="black" d="M578.11,-2051.61C576.69,-2037.24 575,-2016.21 575,-1997.8 575,-1997.8 575,-1997.8 575,-1595.8 575,-1574.13 574.16,-1549.6 573.37,-1531.32"/>
<polygon fill="black" stroke="black" points="576.85,-1530.92 572.9,-1521.09 569.86,-1531.24 576.85,-1530.92"/>
</g>
<!-- UseROIRefineLoose -->
<g id="node38" class="node">
<title>UseROIRefineLoose</title>
<polygon fill="none" stroke="black" points="416,-1847.8 326.68,-1829.8 416,-1811.8 505.32,-1829.8 416,-1847.8"/>
<text text-anchor="middle" x="416" y="-1826.1" font-family="Times,serif" font-size="14.00">UseROIRefine</text>
</g>
<!-- find_roi_by_decon_itself_ind&#45;&gt;UseROIRefineLoose -->
<g id="edge41" class="edge">
<title>find_roi_by_decon_itself_ind&#45;&gt;UseROIRefineLoose</title>
<path fill="none" stroke="black" d="M416,-1905.5C416,-1892.26 416,-1873.75 416,-1858.46"/>
<polygon fill="black" stroke="black" points="419.5,-1858.03 416,-1848.03 412.5,-1858.03 419.5,-1858.03"/>
</g>
<!-- decon_2D_looseROI -->
<g id="node39" class="node">
<title>decon_2D_looseROI</title>
<ellipse fill="none" stroke="red" cx="416" cy="-1742.8" rx="85.29" ry="18"/>
<text text-anchor="middle" x="416" y="-1739.1" font-family="Times,serif" font-size="14.00">decon_2D_looseROI</text>
</g>
<!-- UseROIRefineLoose&#45;&gt;decon_2D_looseROI -->
<g id="edge42" class="edge">
<title>UseROIRefineLoose&#45;&gt;decon_2D_looseROI</title>
<path fill="none" stroke="black" d="M416,-1811.6C416,-1799.96 416,-1784.35 416,-1771.04"/>
<polygon fill="black" stroke="black" points="419.5,-1770.98 416,-1760.98 412.5,-1770.98 419.5,-1770.98"/>
<text text-anchor="middle" x="425.5" y="-1782.6" font-family="Times,serif" font-size="14.00">yes</text>
</g>
<!-- decon_2D_looseROI&#45;&gt;find_roi_loose -->
<g id="edge43" class="edge">
<title>decon_2D_looseROI&#45;&gt;find_roi_loose</title>
<path fill="none" stroke="black" d="M416,-1724.61C416,-1716.59 416,-1706.85 416,-1697.87"/>
<polygon fill="black" stroke="black" points="419.5,-1697.83 416,-1687.83 412.5,-1697.83 419.5,-1697.83"/>
</g>
<!-- decon_2D_ROI_refine -->
<g id="node41" class="node">
<title>decon_2D_ROI_refine</title>
<ellipse fill="none" stroke="red" cx="415" cy="-1596.8" rx="90.98" ry="18"/>
<text text-anchor="middle" x="415" y="-1593.1" font-family="Times,serif" font-size="14.00">decon_2D_ROI_refine</text>
</g>
<!-- find_roi_loose&#45;&gt;decon_2D_ROI_refine -->
<g id="edge44" class="edge">
<title>find_roi_loose&#45;&gt;decon_2D_ROI_refine</title>
<path fill="none" stroke="black" d="M415.76,-1651.61C415.64,-1643.59 415.51,-1633.85 415.38,-1624.87"/>
<polygon fill="black" stroke="black" points="418.88,-1624.78 415.24,-1614.83 411.88,-1624.88 418.88,-1624.78"/>
</g>
<!-- ROIRefine_do_load_data_ind -->
<g id="node42" class="node">
<title>ROIRefine_do_load_data_ind</title>
<ellipse fill="none" stroke="red" cx="319" cy="-1502.8" rx="116.18" ry="18"/>
<text text-anchor="middle" x="319" y="-1499.1" font-family="Times,serif" font-size="14.00">ROIRefine_do_load_data_ind</text>
</g>
<!-- decon_2D_ROI_refine&#45;&gt;ROIRefine_do_load_data_ind -->
<g id="edge48" class="edge">
<title>decon_2D_ROI_refine&#45;&gt;ROIRefine_do_load_data_ind</title>
<path fill="none" stroke="black" d="M397.39,-1578.93C382.47,-1564.62 360.88,-1543.93 344.13,-1527.89"/>
<polygon fill="black" stroke="black" points="346.46,-1525.27 336.82,-1520.88 341.62,-1530.32 346.46,-1525.27"/>
</g>
<!-- dummy -->
<!-- ROIRefine_do_load_data_coll&#45;&gt;dummy -->
<!-- cleanup_ROIs_in_plane -->
<g id="node45" class="node">
<title>cleanup_ROIs_in_plane</title>
<ellipse fill="none" stroke="black" cx="572" cy="-1368.2" rx="95.58" ry="18"/>
<text text-anchor="middle" x="572" y="-1364.5" font-family="Times,serif" font-size="14.00">cleanup_ROIs_in_plane</text>
</g>
<!-- dummy&#45;&gt;cleanup_ROIs_in_plane -->
<g id="edge51" class="edge">
<title>dummy&#45;&gt;cleanup_ROIs_in_plane</title>
<path fill="none" stroke="black" d="M572,-1436.2C572,-1433.66 572,-1430.69 572,-1427.43"/>
<polygon fill="black" stroke="black" points="575.5,-1427.2 572,-1417.2 568.5,-1427.2 575.5,-1427.2"/>
</g>
<!-- generate_merge_ROIs_in_plane -->
<g id="node46" class="node">
<title>generate_merge_ROIs_in_plane</title>
<ellipse fill="none" stroke="black" cx="572" cy="-1295.2" rx="124.58" ry="18"/>
<text text-anchor="middle" x="572" y="-1291.5" font-family="Times,serif" font-size="14.00">generate_merge_ROIs_in_plane</text>
</g>
<!-- cleanup_ROIs_in_plane&#45;&gt;generate_merge_ROIs_in_plane -->
<g id="edge52" class="edge">
<title>cleanup_ROIs_in_plane&#45;&gt;generate_merge_ROIs_in_plane</title>
<path fill="none" stroke="black" d="M572,-1350.01C572,-1341.99 572,-1332.25 572,-1323.27"/>
<polygon fill="black" stroke="black" points="575.5,-1323.23 572,-1313.23 568.5,-1323.23 575.5,-1323.23"/>
</g>
<!-- MP3ROI -->
<g id="node47" class="node">
<title>MP3ROI</title>
<ellipse fill="none" stroke="black" cx="572" cy="-1201.2" rx="43.59" ry="18"/>
<text text-anchor="middle" x="572" y="-1197.5" font-family="Times,serif" font-size="14.00">MP3ROI</text>
</g>
<!-- generate_merge_ROIs_in_plane&#45;&gt;MP3ROI -->
<g id="edge53" class="edge">
<title>generate_merge_ROIs_in_plane&#45;&gt;MP3ROI</title>
<path fill="none" stroke="black" d="M572,-1276.9C572,-1271.98 572,-1266.33 572,-1260.39"/>
<polygon fill="black" stroke="black" points="575.5,-1260.2 572,-1250.2 568.5,-1260.2 575.5,-1260.2"/>
</g>
<!-- MP2ROI -->
<g id="node48" class="node">
<title>MP2ROI</title>
<ellipse fill="none" stroke="black" cx="572" cy="-1128.2" rx="43.59" ry="18"/>
<text text-anchor="middle" x="572" y="-1124.5" font-family="Times,serif" font-size="14.00">MP2ROI</text>
</g>
<!-- MP3ROI&#45;&gt;MP2ROI -->
<g id="edge54" class="edge">
<title>MP3ROI&#45;&gt;MP2ROI</title>
<path fill="none" stroke="black" d="M572,-1183.01C572,-1174.99 572,-1165.25 572,-1156.27"/>
<polygon fill="black" stroke="black" points="575.5,-1156.23 572,-1146.23 568.5,-1156.23 575.5,-1156.23"/>
</g>
<!-- dummy2 -->
<!-- MP2ROI&#45;&gt;dummy2 -->
<!-- dummy3 -->
<!-- dummy2&#45;&gt;dummy3 -->
<g id="edge56" class="edge">
<title>dummy2&#45;&gt;dummy3</title>
<path fill="none" stroke="black" d="M572,-1061.6C572,-1058.98 572,-1055.91 572,-1052.61"/>
<polygon fill="black" stroke="black" points="575.5,-1052.6 572,-1042.6 568.5,-1052.6 575.5,-1052.6"/>
</g>
<!-- BreakROIs -->
<g id="node51" class="node">
<title>BreakROIs</title>
<ellipse fill="none" stroke="black" cx="572" cy="-932" rx="50.09" ry="18"/>
<text text-anchor="middle" x="572" y="-928.3" font-family="Times,serif" font-size="14.00">BreakROIs</text>
</g>
<!-- dummy3&#45;&gt;BreakROIs -->
<!-- CheckROIs -->
<g id="node52" class="node">
<title>CheckROIs</title>
<ellipse fill="none" stroke="black" cx="572" cy="-859" rx="51.99" ry="18"/>
<text text-anchor="middle" x="572" y="-855.3" font-family="Times,serif" font-size="14.00">CheckROIs</text>
</g>
<!-- BreakROIs&#45;&gt;CheckROIs -->
<g id="edge58" class="edge">
<title>BreakROIs&#45;&gt;CheckROIs</title>
<path fill="none" stroke="black" d="M572,-913.81C572,-905.79 572,-896.05 572,-887.07"/>
<polygon fill="black" stroke="black" points="575.5,-887.03 572,-877.03 568.5,-887.03 575.5,-887.03"/>
</g>
<!-- CleanROIs -->
<g id="node53" class="node">
<title>CleanROIs</title>
<ellipse fill="none" stroke="black" cx="572" cy="-786" rx="50.09" ry="18"/>
<text text-anchor="middle" x="572" y="-782.3" font-family="Times,serif" font-size="14.00">CleanROIs</text>
</g>
<!-- CheckROIs&#45;&gt;CleanROIs -->
<g id="edge59" class="edge">
<title>CheckROIs&#45;&gt;CleanROIs</title>
<path fill="none" stroke="black" d="M572,-840.81C572,-832.79 572,-823.05 572,-814.07"/>
<polygon fill="black" stroke="black" points="575.5,-814.03 572,-804.03 568.5,-814.03 575.5,-814.03"/>
</g>
<!-- ShrinkROIs -->
<g id="node54" class="node">
<title>ShrinkROIs</title>
<ellipse fill="none" stroke="black" cx="572" cy="-713" rx="52.79" ry="18"/>
<text text-anchor="middle" x="572" y="-709.3" font-family="Times,serif" font-size="14.00">ShrinkROIs</text>
</g>
<!-- CleanROIs&#45;&gt;ShrinkROIs -->
<g id="edge60" class="edge">
<title>CleanROIs&#45;&gt;ShrinkROIs</title>
<path fill="none" stroke="black" d="M572,-760C572,-753.88 572,-747.29 572,-741.07"/>
<polygon fill="black" stroke="black" points="575.5,-741.03 572,-731.03 568.5,-741.03 575.5,-741.03"/>
</g>
<!-- BreakROIs2 -->
<g id="node55" class="node">
<title>BreakROIs2</title>
<ellipse fill="none" stroke="black" cx="572" cy="-640" rx="54.69" ry="18"/>
<text text-anchor="middle" x="572" y="-636.3" font-family="Times,serif" font-size="14.00">BreakROIs2</text>
</g>
<!-- ShrinkROIs&#45;&gt;BreakROIs2 -->
<g id="edge61" class="edge">
<title>ShrinkROIs&#45;&gt;BreakROIs2</title>
<path fill="none" stroke="black" d="M572,-694.81C572,-686.79 572,-677.05 572,-668.07"/>
<polygon fill="black" stroke="black" points="575.5,-668.03 572,-658.03 568.5,-668.03 575.5,-668.03"/>
</g>
<!-- CleanROIs2 -->
<g id="node56" class="node">
<title>CleanROIs2</title>
<ellipse fill="none" stroke="black" cx="572" cy="-567" rx="53.89" ry="18"/>
<text text-anchor="middle" x="572" y="-563.3" font-family="Times,serif" font-size="14.00">CleanROIs2</text>
</g>
<!-- BreakROIs2&#45;&gt;CleanROIs2 -->
<g id="edge62" class="edge">
<title>BreakROIs2&#45;&gt;CleanROIs2</title>
<path fill="none" stroke="black" d="M572,-621.81C572,-613.79 572,-604.05 572,-595.07"/>
<polygon fill="black" stroke="black" points="575.5,-595.03 572,-585.03 568.5,-595.03 575.5,-595.03"/>
</g>
<!-- IsInductionPlanePL3 -->
<g id="node57" class="node">
<title>IsInductionPlanePL3</title>
<polygon fill="none" stroke="black" points="572,-512 500.11,-494 572,-476 643.89,-494 572,-512"/>
<text text-anchor="middle" x="572" y="-490.3" font-family="Times,serif" font-size="14.00">IsInduction</text>
</g>
<!-- CleanROIs2&#45;&gt;IsInductionPlanePL3 -->
<g id="edge63" class="edge">
<title>CleanROIs2&#45;&gt;IsInductionPlanePL3</title>
<path fill="none" stroke="black" d="M572,-548.81C572,-540.79 572,-531.05 572,-522.07"/>
<polygon fill="black" stroke="black" points="575.5,-522.03 572,-512.03 568.5,-522.03 575.5,-522.03"/>
</g>
<!-- CleanUpCollectionROIs -->
<g id="node58" class="node">
<title>CleanUpCollectionROIs</title>
<ellipse fill="none" stroke="black" cx="453" cy="-407" rx="96.68" ry="18"/>
<text text-anchor="middle" x="453" y="-403.3" font-family="Times,serif" font-size="14.00">CleanUpCollectionROIs</text>
</g>
<!-- IsInductionPlanePL3&#45;&gt;CleanUpCollectionROIs -->
<g id="edge64" class="edge">
<title>IsInductionPlanePL3&#45;&gt;CleanUpCollectionROIs</title>
<path fill="none" stroke="black" d="M554.18,-480.27C535.79,-467.13 506.7,-446.36 484.43,-430.45"/>
<polygon fill="black" stroke="black" points="486.43,-427.58 476.26,-424.62 482.37,-433.28 486.43,-427.58"/>
<text text-anchor="middle" x="527" y="-446.8" font-family="Times,serif" font-size="14.00">no</text>
</g>
<!-- CleanUpInductionROIs -->
<g id="node59" class="node">
<title>CleanUpInductionROIs</title>
<ellipse fill="none" stroke="black" cx="662" cy="-407" rx="94.48" ry="18"/>
<text text-anchor="middle" x="662" y="-403.3" font-family="Times,serif" font-size="14.00">CleanUpInductionROIs</text>
</g>
<!-- IsInductionPlanePL3&#45;&gt;CleanUpInductionROIs -->
<g id="edge65" class="edge">
<title>IsInductionPlanePL3&#45;&gt;CleanUpInductionROIs</title>
<path fill="none" stroke="black" d="M586.46,-479.34C599.95,-466.6 620.38,-447.3 636.6,-431.99"/>
<polygon fill="black" stroke="black" points="639.3,-434.25 644.17,-424.84 634.5,-429.16 639.3,-434.25"/>
<text text-anchor="middle" x="631.5" y="-446.8" font-family="Times,serif" font-size="14.00">yes</text>
</g>
<!-- ExtendROIs -->
<g id="node60" class="node">
<title>ExtendROIs</title>
<ellipse fill="none" stroke="black" cx="557" cy="-334" rx="53.89" ry="18"/>
<text text-anchor="middle" x="557" y="-330.3" font-family="Times,serif" font-size="14.00">ExtendROIs</text>
</g>
<!-- CleanUpCollectionROIs&#45;&gt;ExtendROIs -->
<g id="edge66" class="edge">
<title>CleanUpCollectionROIs&#45;&gt;ExtendROIs</title>
<path fill="none" stroke="black" d="M477.12,-389.53C491.7,-379.58 510.44,-366.79 526.1,-356.1"/>
<polygon fill="black" stroke="black" points="528.15,-358.93 534.43,-350.41 524.2,-353.15 528.15,-358.93"/>
</g>
<!-- CleanUpInductionROIs&#45;&gt;ExtendROIs -->
<g id="edge67" class="edge">
<title>CleanUpInductionROIs&#45;&gt;ExtendROIs</title>
<path fill="none" stroke="black" d="M637.65,-389.53C622.93,-379.58 604.01,-366.79 588.2,-356.1"/>
<polygon fill="black" stroke="black" points="590.03,-353.11 579.78,-350.41 586.11,-358.91 590.03,-353.11"/>
</g>
<!-- decon_2D_hits -->
<g id="node61" class="node">
<title>decon_2D_hits</title>
<ellipse fill="none" stroke="black" cx="557" cy="-261" rx="63.89" ry="18"/>
<text text-anchor="middle" x="557" y="-257.3" font-family="Times,serif" font-size="14.00">decon_2D_hits</text>
</g>
<!-- ExtendROIs&#45;&gt;decon_2D_hits -->
<g id="edge68" class="edge">
<title>ExtendROIs&#45;&gt;decon_2D_hits</title>
<path fill="none" stroke="black" d="M557,-315.81C557,-307.79 557,-298.05 557,-289.07"/>
<polygon fill="black" stroke="black" points="560.5,-289.03 557,-279.03 553.5,-289.03 560.5,-289.03"/>
</g>
<!-- apply_roi -->
<g id="node62" class="node">
<title>apply_roi</title>
<ellipse fill="none" stroke="black" cx="557" cy="-188" rx="44.39" ry="18"/>
<text text-anchor="middle" x="557" y="-184.3" font-family="Times,serif" font-size="14.00">apply_roi</text>
</g>
<!-- decon_2D_hits&#45;&gt;apply_roi -->
<g id="edge69" class="edge">
<title>decon_2D_hits&#45;&gt;apply_roi</title>
<path fill="none" stroke="black" d="M557,-242.81C557,-234.79 557,-225.05 557,-216.07"/>
<polygon fill="black" stroke="black" points="560.5,-216.03 557,-206.03 553.5,-216.03 560.5,-216.03"/>
</g>
<!-- decon_2D_charge -->
<g id="node63" class="node">
<title>decon_2D_charge</title>
<ellipse fill="none" stroke="black" cx="557" cy="-115" rx="74.99" ry="18"/>
<text text-anchor="middle" x="557" y="-111.3" font-family="Times,serif" font-size="14.00">decon_2D_charge</text>
</g>
<!-- apply_roi&#45;&gt;decon_2D_charge -->
<g id="edge70" class="edge">
<title>apply_roi&#45;&gt;decon_2D_charge</title>
<path fill="none" stroke="black" d="M557,-169.81C557,-161.79 557,-152.05 557,-143.07"/>
<polygon fill="black" stroke="black" points="560.5,-143.03 557,-133.03 553.5,-143.03 560.5,-143.03"/>
</g>
<!-- apply_roi2 -->
<g id="node64" class="node">
<title>apply_roi2</title>
<ellipse fill="none" stroke="black" cx="557" cy="-42" rx="44.39" ry="18"/>
<text text-anchor="middle" x="557" y="-38.3" font-family="Times,serif" font-size="14.00">apply_roi</text>
</g>
<!-- decon_2D_charge&#45;&gt;apply_roi2 -->
<g id="edge71" class="edge">
<title>decon_2D_charge&#45;&gt;apply_roi2</title>
<path fill="none" stroke="black" d="M557,-96.81C557,-88.79 557,-79.05 557,-70.07"/>
<polygon fill="black" stroke="black" points="560.5,-70.03 557,-60.03 553.5,-70.03 560.5,-70.03"/>
</g>
<!-- WaveformsTPC -->
<g id="node65" class="node">
<title>WaveformsTPC</title>
<polygon fill="none" stroke="black" points="842.5,-3564.4 741.5,-3564.4 737.5,-3560.4 737.5,-3528.4 838.5,-3528.4 842.5,-3532.4 842.5,-3564.4"/>
<polyline fill="none" stroke="black" points="838.5,-3560.4 737.5,-3560.4 "/>
<polyline fill="none" stroke="black" points="838.5,-3560.4 838.5,-3528.4 "/>
<polyline fill="none" stroke="black" points="838.5,-3560.4 842.5,-3564.4 "/>
<text text-anchor="middle" x="790" y="-3542.7" font-family="Times,serif" font-size="14.00">WaveformsTPC</text>
</g>
<!-- WaveformsTPC&#45;&gt;MaskFunc -->
<g id="edge8" class="edge">
<title>WaveformsTPC&#45;&gt;MaskFunc</title>
<path fill="none" stroke="black" d="M782.63,-3528.3C773.73,-3507.64 758.67,-3472.68 748.3,-3448.62"/>
<polygon fill="black" stroke="black" points="751.48,-3447.16 744.31,-3439.36 745.05,-3449.93 751.48,-3447.16"/>
</g>
<!-- WaveformsTPC&#45;&gt;Add -->
<g id="edge15" class="edge">
<title>WaveformsTPC&#45;&gt;Add</title>
<path fill="none" stroke="black" d="M808.6,-3528.1C815.69,-3520.55 823.2,-3511.19 828,-3501.4 843.78,-3469.24 844,-3458.22 844,-3422.4 844,-3422.4 844,-3422.4 844,-3222.4 844,-3181.72 692.73,-3170.55 648.82,-3168.16"/>
<polygon fill="black" stroke="black" points="648.95,-3164.66 638.79,-3167.67 648.61,-3171.65 648.95,-3164.66"/>
</g>
</g>
</svg>
